  0
SECTION
  2
HEADER
  9
$EXTMIN
 10
-169990.39
 20
-111695.54
  9
$EXTMAX
 10
177125.66
 20
108158.28
  9
$LUPREC
 70
    14
  0
ENDSEC
  0
SECTION
  2
TABLES
  0
ENDSEC
  0
SECTION
  2
BLOCKS
  0
ENDSEC
  0
SECTION
  2
ENTITIES
  0
POLYLINE
  8
0CH97TEST
 66
     1
  0
VERTEX
  8
0CH97TEST
 10
108841.09
 20
26373.00
  0
VERTEX
  8
0CH97TEST
 10
108515.49
 20
26438.32
  0
VERTEX
  8
0CH97TEST
 10
106236.75
 20
25692.89
  0
VERTEX
  8
0CH97TEST
 10
105245.02
 20
25784.28
  0
VERTEX
  8
0CH97TEST
 10
103683.47
 20
26896.80
  0
VERTEX
  8
0CH97TEST
 10
102582.03
 20
26525.14
  0
VERTEX
  8
0CH97TEST
 10
101420.59
 20
26406.36
  0
VERTEX
  8
0CH97TEST
 10
99902.00
 20
25664.51
  0
VERTEX
  8
0CH97TEST
 10
99514.02
 20
25879.03
  0
VERTEX
  8
0CH97TEST
 10
99303.52
 20
26627.28
  0
VERTEX
  8
0CH97TEST
 10
99429.27
 20
27012.05
  0
VERTEX
  8
0CH97TEST
 10
99988.82
 20
27642.11
  0
VERTEX
  8
0CH97TEST
 10
101763.09
 20
28974.68
  0
VERTEX
  8
0CH97TEST
 10
102495.06
 20
29737.76
  0
VERTEX
  8
0CH97TEST
 10
102721.59
 20
30482.42
  0
VERTEX
  8
0CH97TEST
 10
102769.39
 20
31272.78
  0
VERTEX
  8
0CH97TEST
 10
101775.90
 20
35025.97
  0
VERTEX
  8
0CH97TEST
 10
100761.69
 20
37228.32
  0
VERTEX
  8
0CH97TEST
 10
100426.01
 20
38132.64
  0
VERTEX
  8
0CH97TEST
 10
100206.73
 20
39319.79
  0
VERTEX
  8
0CH97TEST
 10
100206.74
 20
40743.56
  0
VERTEX
  8
0CH97TEST
 10
101314.06
 20
45179.66
  0
VERTEX
  8
0CH97TEST
 10
102624.13
 20
48174.95
  0
VERTEX
  8
0CH97TEST
 10
103298.09
 20
49850.59
  0
VERTEX
  8
0CH97TEST
 10
104366.36
 20
51108.15
  0
VERTEX
  8
0CH97TEST
 10
105150.38
 20
53246.28
  0
VERTEX
  8
0CH97TEST
 10
105607.82
 20
53897.18
  0
VERTEX
  8
0CH97TEST
 10
106005.66
 20
54088.00
  0
VERTEX
  8
0CH97TEST
 10
106841.05
 20
54779.31
  0
VERTEX
  8
0CH97TEST
 10
107424.09
 20
55717.31
  0
VERTEX
  8
0CH97TEST
 10
107487.02
 20
55818.58
  0
VERTEX
  8
0CH97TEST
 10
107559.16
 20
56634.04
  0
VERTEX
  8
0CH97TEST
 10
108186.05
 20
58206.76
  0
VERTEX
  8
0CH97TEST
 10
109568.03
 20
60594.52
  0
VERTEX
  8
0CH97TEST
 10
109756.53
 20
60981.97
  0
VERTEX
  8
0CH97TEST
 10
109784.16
 20
61248.07
  0
VERTEX
  8
0CH97TEST
 10
111615.15
 20
61479.28
  0
VERTEX
  8
0CH97TEST
 10
112734.05
 20
61643.96
  0
VERTEX
  8
0CH97TEST
 10
113095.67
 20
62031.44
  0
VERTEX
  8
0CH97TEST
 10
113211.99
 20
62286.11
  0
VERTEX
  8
0CH97TEST
 10
113384.22
 20
62731.08
  0
VERTEX
  8
0CH97TEST
 10
113117.55
 20
63221.93
  0
VERTEX
  8
0CH97TEST
 10
112214.09
 20
64067.62
  0
VERTEX
  8
0CH97TEST
 10
111824.70
 20
64493.82
  0
VERTEX
  8
0CH97TEST
 10
112062.77
 20
65815.25
  0
VERTEX
  8
0CH97TEST
 10
111624.91
 20
68163.72
  0
VERTEX
  8
0CH97TEST
 10
111768.18
 20
69108.30
  0
VERTEX
  8
0CH97TEST
 10
112193.87
 20
69937.34
  0
VERTEX
  8
0CH97TEST
 10
111401.62
 20
70875.62
  0
VERTEX
  8
0CH97TEST
 10
110793.64
 20
70905.30
  0
VERTEX
  8
0CH97TEST
 10
109951.97
 20
71103.77
  0
VERTEX
  8
0CH97TEST
 10
108878.36
 20
72133.86
  0
VERTEX
  8
0CH97TEST
 10
108624.77
 20
72150.39
  0
VERTEX
  8
0CH97TEST
 10
108209.88
 20
71729.10
  0
VERTEX
  8
0CH97TEST
 10
107807.56
 20
71664.87
  0
VERTEX
  8
0CH97TEST
 10
107177.88
 20
72302.91
  0
VERTEX
  8
0CH97TEST
 10
106659.07
 20
73377.88
  0
VERTEX
  8
0CH97TEST
 10
105869.62
 20
74240.12
  0
VERTEX
  8
0CH97TEST
 10
105388.76
 20
74960.78
  0
VERTEX
  8
0CH97TEST
 10
104419.74
 20
76300.26
  0
VERTEX
  8
0CH97TEST
 10
103367.52
 20
79413.47
  0
VERTEX
  8
0CH97TEST
 10
103404.93
 20
79771.34
  0
VERTEX
  8
0CH97TEST
 10
102062.43
 20
80458.48
  0
VERTEX
  8
0CH97TEST
 10
99770.75
 20
82153.86
  0
VERTEX
  8
0CH97TEST
 10
97005.23
 20
84339.88
  0
VERTEX
  8
0CH97TEST
 10
93836.88
 20
86460.04
  0
VERTEX
  8
0CH97TEST
 10
92669.60
 20
87205.54
  0
VERTEX
  8
0CH97TEST
 10
89155.73
 20
89085.15
  0
VERTEX
  8
0CH97TEST
 10
84678.99
 20
90980.41
  0
VERTEX
  8
0CH97TEST
 10
83057.63
 20
92369.44
  0
VERTEX
  8
0CH97TEST
 10
81297.48
 20
92711.71
  0
VERTEX
  8
0CH97TEST
 10
79694.55
 20
92221.80
  0
VERTEX
  8
0CH97TEST
 10
77779.73
 20
91947.92
  0
VERTEX
  8
0CH97TEST
 10
76444.94
 20
92433.05
  0
VERTEX
  8
0CH97TEST
 10
74600.62
 20
93687.00
  0
VERTEX
  8
0CH97TEST
 10
74524.80
 20
93685.19
  0
VERTEX
  8
0CH97TEST
 10
73109.37
 20
93607.12
  0
VERTEX
  8
0CH97TEST
 10
71558.12
 20
93780.15
  0
VERTEX
  8
0CH97TEST
 10
69911.49
 20
94482.27
  0
VERTEX
  8
0CH97TEST
 10
67640.92
 20
94933.69
  0
VERTEX
  8
0CH97TEST
 10
65883.62
 20
95199.57
  0
VERTEX
  8
0CH97TEST
 10
63385.24
 20
94956.10
  0
VERTEX
  8
0CH97TEST
 10
62260.08
 20
94559.30
  0
VERTEX
  8
0CH97TEST
 10
60202.43
 20
93341.16
  0
VERTEX
  8
0CH97TEST
 10
60003.80
 20
93232.65
  0
VERTEX
  8
0CH97TEST
 10
56910.99
 20
91926.27
  0
VERTEX
  8
0CH97TEST
 10
55906.70
 20
91685.42
  0
VERTEX
  8
0CH97TEST
 10
54964.33
 20
91830.07
  0
VERTEX
  8
0CH97TEST
 10
54564.21
 20
91688.05
  0
VERTEX
  8
0CH97TEST
 10
53646.54
 20
92544.92
  0
VERTEX
  8
0CH97TEST
 10
52282.62
 20
94527.54
  0
VERTEX
  8
0CH97TEST
 10
51576.85
 20
95824.38
  0
VERTEX
  8
0CH97TEST
 10
51832.89
 20
96442.55
  0
VERTEX
  8
0CH97TEST
 10
53180.71
 20
96289.20
  0
VERTEX
  8
0CH97TEST
 10
53472.22
 20
96629.92
  0
VERTEX
  8
0CH97TEST
 10
53174.61
 20
97151.93
  0
VERTEX
  8
0CH97TEST
 10
50724.62
 20
98359.91
  0
VERTEX
  8
0CH97TEST
 10
49457.47
 20
98732.95
  0
VERTEX
  8
0CH97TEST
 10
48574.24
 20
98993.63
  0
VERTEX
  8
0CH97TEST
 10
47992.34
 20
100369.54
  0
VERTEX
  8
0CH97TEST
 10
46452.88
 20
99526.58
  0
VERTEX
  8
0CH97TEST
 10
45404.06
 20
98371.80
  0
VERTEX
  8
0CH97TEST
 10
45210.99
 20
98160.34
  0
VERTEX
  8
0CH97TEST
 10
45794.23
 20
97444.19
  0
VERTEX
  8
0CH97TEST
 10
47568.91
 20
96695.66
  0
VERTEX
  8
0CH97TEST
 10
47885.41
 20
96351.26
  0
VERTEX
  8
0CH97TEST
 10
47335.95
 20
95441.59
  0
VERTEX
  8
0CH97TEST
 10
47090.26
 20
94265.48
  0
VERTEX
  8
0CH97TEST
 10
46336.94
 20
94458.42
  0
VERTEX
  8
0CH97TEST
 10
45090.97
 20
95380.62
  0
VERTEX
  8
0CH97TEST
 10
44149.84
 20
95640.27
  0
VERTEX
  8
0CH97TEST
 10
42548.64
 20
96157.79
  0
VERTEX
  8
0CH97TEST
 10
42409.25
 20
96507.99
  0
VERTEX
  8
0CH97TEST
 10
42599.06
 20
97557.09
  0
VERTEX
  8
0CH97TEST
 10
42533.16
 20
98673.04
  0
VERTEX
  8
0CH97TEST
 10
41511.71
 20
99601.86
  0
VERTEX
  8
0CH97TEST
 10
41440.86
 20
100204.11
  0
VERTEX
  8
0CH97TEST
 10
41401.75
 20
100537.23
  0
VERTEX
  8
0CH97TEST
 10
42071.13
 20
101628.32
  0
VERTEX
  8
0CH97TEST
 10
42407.65
 20
102124.49
  0
VERTEX
  8
0CH97TEST
 10
42379.10
 20
102910.70
  0
VERTEX
  8
0CH97TEST
 10
41620.73
 20
103569.09
  0
VERTEX
  8
0CH97TEST
 10
40058.24
 20
103360.09
  0
VERTEX
  8
0CH97TEST
 10
38945.98
 20
102608.59
  0
VERTEX
  8
0CH97TEST
 10
38656.62
 20
102903.59
  0
VERTEX
  8
0CH97TEST
 10
39038.69
 20
104238.45
  0
VERTEX
  8
0CH97TEST
 10
38940.68
 20
104844.79
  0
VERTEX
  8
0CH97TEST
 10
38368.97
 20
105941.73
  0
VERTEX
  8
0CH97TEST
 10
36834.60
 20
107055.06
  0
VERTEX
  8
0CH97TEST
 10
36121.84
 20
107156.23
  0
VERTEX
  8
0CH97TEST
 10
35707.55
 20
106708.73
  0
VERTEX
  8
0CH97TEST
 10
36220.77
 20
105127.62
  0
VERTEX
  8
0CH97TEST
 10
35953.24
 20
104126.20
  0
VERTEX
  8
0CH97TEST
 10
35468.59
 20
103525.16
  0
VERTEX
  8
0CH97TEST
 10
35007.84
 20
103661.09
  0
VERTEX
  8
0CH97TEST
 10
34975.62
 20
104548.26
  0
VERTEX
  8
0CH97TEST
 10
34632.15
 20
104943.23
  0
VERTEX
  8
0CH97TEST
 10
34454.57
 20
105648.43
  0
VERTEX
  8
0CH97TEST
 10
34527.19
 20
106819.56
  0
VERTEX
  8
0CH97TEST
 10
34266.47
 20
107344.00
  0
VERTEX
  8
0CH97TEST
 10
33231.88
 20
107940.77
  0
VERTEX
  8
0CH97TEST
 10
32008.76
 20
108150.69
  0
VERTEX
  8
0CH97TEST
 10
30083.93
 20
108158.28
  0
VERTEX
  8
0CH97TEST
 10
29714.76
 20
107864.98
  0
VERTEX
  8
0CH97TEST
 10
29795.63
 20
107029.37
  0
VERTEX
  8
0CH97TEST
 10
30266.49
 20
106614.83
  0
VERTEX
  8
0CH97TEST
 10
30271.51
 20
105776.28
  0
VERTEX
  8
0CH97TEST
 10
29334.80
 20
105768.11
  0
VERTEX
  8
0CH97TEST
 10
28467.62
 20
105939.85
  0
VERTEX
  8
0CH97TEST
 10
27868.93
 20
105690.10
  0
VERTEX
  8
0CH97TEST
 10
27135.09
 20
104978.30
  0
VERTEX
  8
0CH97TEST
 10
25397.36
 20
104711.32
  0
VERTEX
  8
0CH97TEST
 10
24526.87
 20
104274.11
  0
VERTEX
  8
0CH97TEST
 10
23152.22
 20
102836.10
  0
VERTEX
  8
0CH97TEST
 10
21925.30
 20
101283.60
  0
VERTEX
  8
0CH97TEST
 10
21742.65
 20
100032.05
  0
VERTEX
  8
0CH97TEST
 10
21200.84
 20
99605.48
  0
VERTEX
  8
0CH97TEST
 10
20551.91
 20
98642.43
  0
VERTEX
  8
0CH97TEST
 10
19157.01
 20
97296.49
  0
VERTEX
  8
0CH97TEST
 10
18828.60
 20
96572.65
  0
VERTEX
  8
0CH97TEST
 10
19208.30
 20
95874.43
  0
VERTEX
  8
0CH97TEST
 10
19081.84
 20
95869.77
  0
VERTEX
  8
0CH97TEST
 10
19303.16
 20
95660.54
  0
VERTEX
  8
0CH97TEST
 10
18477.78
 20
93663.03
  0
VERTEX
  8
0CH97TEST
 10
18674.99
 20
93110.96
  0
VERTEX
  8
0CH97TEST
 10
19583.15
 20
92509.06
  0
VERTEX
  8
0CH97TEST
 10
20547.46
 20
91756.08
  0
VERTEX
  8
0CH97TEST
 10
20551.18
 20
91653.87
  0
VERTEX
  8
0CH97TEST
 10
22853.84
 20
91711.16
  0
VERTEX
  8
0CH97TEST
 10
22940.67
 20
91409.08
  0
VERTEX
  8
0CH97TEST
 10
22688.11
 20
90688.70
  0
VERTEX
  8
0CH97TEST
 10
22762.62
 20
90030.68
  0
VERTEX
  8
0CH97TEST
 10
23441.79
 20
89647.79
  0
VERTEX
  8
0CH97TEST
 10
23645.66
 20
90824.83
  0
VERTEX
  8
0CH97TEST
 10
24151.51
 20
90843.85
  0
VERTEX
  8
0CH97TEST
 10
24617.88
 20
90555.23
  0
VERTEX
  8
0CH97TEST
 10
25440.69
 20
90915.90
  0
VERTEX
  8
0CH97TEST
 10
26640.49
 20
90653.15
  0
VERTEX
  8
0CH97TEST
 10
27142.74
 20
90773.38
  0
VERTEX
  8
0CH97TEST
 10
27332.21
 20
91135.65
  0
VERTEX
  8
0CH97TEST
 10
27073.36
 20
91990.42
  0
VERTEX
  8
0CH97TEST
 10
27439.89
 20
92360.30
  0
VERTEX
  8
0CH97TEST
 10
28127.46
 20
92256.67
  0
VERTEX
  8
0CH97TEST
 10
28431.39
 20
92954.20
  0
VERTEX
  8
0CH97TEST
 10
29204.49
 20
93287.16
  0
VERTEX
  8
0CH97TEST
 10
31235.38
 20
93157.65
  0
VERTEX
  8
0CH97TEST
 10
32304.53
 20
93703.84
  0
VERTEX
  8
0CH97TEST
 10
34177.66
 20
91717.45
  0
VERTEX
  8
0CH97TEST
 10
34371.98
 20
90997.92
  0
VERTEX
  8
0CH97TEST
 10
34190.28
 20
90406.41
  0
VERTEX
  8
0CH97TEST
 10
33747.24
 20
90061.54
  0
VERTEX
  8
0CH97TEST
 10
33113.16
 20
90116.88
  0
VERTEX
  8
0CH97TEST
 10
33313.89
 20
90885.35
  0
VERTEX
  8
0CH97TEST
 10
33252.22
 20
91490.72
  0
VERTEX
  8
0CH97TEST
 10
32971.39
 20
91280.44
  0
VERTEX
  8
0CH97TEST
 10
32481.35
 20
90831.48
  0
VERTEX
  8
0CH97TEST
 10
32282.43
 20
90012.15
  0
VERTEX
  8
0CH97TEST
 10
32606.35
 20
88701.98
  0
VERTEX
  8
0CH97TEST
 10
32926.78
 20
87492.75
  0
VERTEX
  8
0CH97TEST
 10
32773.83
 20
86801.34
  0
VERTEX
  8
0CH97TEST
 10
32203.97
 20
85740.73
  0
VERTEX
  8
0CH97TEST
 10
32172.95
 20
85350.31
  0
VERTEX
  8
0CH97TEST
 10
30206.49
 20
85902.32
  0
VERTEX
  8
0CH97TEST
 10
30527.47
 20
86829.10
  0
VERTEX
  8
0CH97TEST
 10
30168.33
 20
87654.80
  0
VERTEX
  8
0CH97TEST
 10
29510.04
 20
88182.95
  0
VERTEX
  8
0CH97TEST
 10
29229.16
 20
88409.32
  0
VERTEX
  8
0CH97TEST
 10
28567.83
 20
88487.50
  0
VERTEX
  8
0CH97TEST
 10
27298.12
 20
89279.74
  0
VERTEX
  8
0CH97TEST
 10
26736.13
 20
89411.62
  0
VERTEX
  8
0CH97TEST
 10
26024.10
 20
88089.67
  0
VERTEX
  8
0CH97TEST
 10
24678.39
 20
87482.39
  0
VERTEX
  8
0CH97TEST
 10
22557.07
 20
85906.97
  0
VERTEX
  8
0CH97TEST
 10
22081.48
 20
85051.31
  0
VERTEX
  8
0CH97TEST
 10
22422.23
 20
84732.35
  0
VERTEX
  8
0CH97TEST
 10
23925.71
 20
84482.52
  0
VERTEX
  8
0CH97TEST
 10
24216.79
 20
84136.73
  0
VERTEX
  8
0CH97TEST
 10
24270.02
 20
83409.93
  0
VERTEX
  8
0CH97TEST
 10
24069.04
 20
83352.27
  0
VERTEX
  8
0CH97TEST
 10
23168.66
 20
83066.15
  0
VERTEX
  8
0CH97TEST
 10
21790.06
 20
82715.17
  0
VERTEX
  8
0CH97TEST
 10
21034.18
 20
82637.77
  0
VERTEX
  8
0CH97TEST
 10
20462.98
 20
82338.83
  0
VERTEX
  8
0CH97TEST
 10
20009.17
 20
82298.24
  0
VERTEX
  8
0CH97TEST
 10
19821.74
 20
82357.84
  0
VERTEX
  8
0CH97TEST
 10
18781.80
 20
82687.82
  0
VERTEX
  8
0CH97TEST
 10
18498.69
 20
82830.71
  0
VERTEX
  8
0CH97TEST
 10
17827.86
 20
83214.20
  0
VERTEX
  8
0CH97TEST
 10
17424.75
 20
83175.25
  0
VERTEX
  8
0CH97TEST
 10
16570.68
 20
82281.17
  0
VERTEX
  8
0CH97TEST
 10
15691.89
 20
82099.77
  0
VERTEX
  8
0CH97TEST
 10
14272.23
 20
82203.88
  0
VERTEX
  8
0CH97TEST
 10
12817.61
 20
82585.25
  0
VERTEX
  8
0CH97TEST
 10
12535.34
 20
82702.55
  0
VERTEX
  8
0CH97TEST
 10
12354.16
 20
82824.34
  0
VERTEX
  8
0CH97TEST
 10
12044.01
 20
83016.26
  0
VERTEX
  8
0CH97TEST
 10
11012.29
 20
84328.30
  0
VERTEX
  8
0CH97TEST
 10
10082.74
 20
84880.59
  0
VERTEX
  8
0CH97TEST
 10
9941.50
 20
85307.06
  0
VERTEX
  8
0CH97TEST
 10
10037.90
 20
86174.65
  0
VERTEX
  8
0CH97TEST
 10
9640.52
 20
86694.44
  0
VERTEX
  8
0CH97TEST
 10
8972.48
 20
87002.59
  0
VERTEX
  8
0CH97TEST
 10
8293.11
 20
86931.60
  0
VERTEX
  8
0CH97TEST
 10
7686.96
 20
86882.85
  0
VERTEX
  8
0CH97TEST
 10
6825.34
 20
87665.64
  0
VERTEX
  8
0CH97TEST
 10
6543.74
 20
87517.29
  0
VERTEX
  8
0CH97TEST
 10
5500.84
 20
87080.60
  0
VERTEX
  8
0CH97TEST
 10
5192.38
 20
86928.05
  0
VERTEX
  8
0CH97TEST
 10
5016.04
 20
86905.41
  0
VERTEX
  8
0CH97TEST
 10
4780.92
 20
86905.21
  0
VERTEX
  8
0CH97TEST
 10
4575.06
 20
87057.33
  0
VERTEX
  8
0CH97TEST
 10
4280.75
 20
87646.70
  0
VERTEX
  8
0CH97TEST
 10
3913.12
 20
88104.53
  0
VERTEX
  8
0CH97TEST
 10
3340.06
 20
88233.98
  0
VERTEX
  8
0CH97TEST
 10
2708.45
 20
87820.09
  0
VERTEX
  8
0CH97TEST
 10
2282.57
 20
87339.75
  0
VERTEX
  8
0CH97TEST
 10
1709.75
 20
86489.95
  0
VERTEX
  8
0CH97TEST
 10
1357.08
 20
86184.04
  0
VERTEX
  8
0CH97TEST
 10
695.74
 20
85661.35
  0
VERTEX
  8
0CH97TEST
 10
49.01
 20
85268.96
  0
VERTEX
  8
0CH97TEST
 10
-641.84
 20
85094.23
  0
VERTEX
  8
0CH97TEST
 10
-1568.00
 20
84919.66
  0
VERTEX
  8
0CH97TEST
 10
-2082.71
 20
84397.24
  0
VERTEX
  8
0CH97TEST
 10
-2515.63
 20
84173.03
  0
VERTEX
  8
0CH97TEST
 10
-2906.12
 20
83903.87
  0
VERTEX
  8
0CH97TEST
 10
-4064.55
 20
83762.45
  0
VERTEX
  8
0CH97TEST
 10
-4552.95
 20
83263.57
  0
VERTEX
  8
0CH97TEST
 10
-5148.25
 20
81463.90
  0
VERTEX
  8
0CH97TEST
 10
-5466.94
 20
81174.06
  0
VERTEX
  8
0CH97TEST
 10
-5920.72
 20
81133.35
  0
VERTEX
  8
0CH97TEST
 10
-6383.32
 20
81345.92
  0
VERTEX
  8
0CH97TEST
 10
-7463.42
 20
81868.92
  0
VERTEX
  8
0CH97TEST
 10
-7939.81
 20
81750.35
  0
VERTEX
  8
0CH97TEST
 10
-8592.00
 20
80863.91
  0
VERTEX
  8
0CH97TEST
 10
-9141.47
 20
80667.08
  0
VERTEX
  8
0CH97TEST
 10
-10044.68
 20
80458.17
  0
VERTEX
  8
0CH97TEST
 10
-10993.99
 20
80121.80
  0
VERTEX
  8
0CH97TEST
 10
-11575.84
 20
80127.59
  0
VERTEX
  8
0CH97TEST
 10
-12354.51
 20
80710.71
  0
VERTEX
  8
0CH97TEST
 10
-12865.83
 20
80870.87
  0
VERTEX
  8
0CH97TEST
 10
-13646.16
 20
80769.13
  0
VERTEX
  8
0CH97TEST
 10
-15744.35
 20
80747.66
  0
VERTEX
  8
0CH97TEST
 10
-15940.33
 20
80563.67
  0
VERTEX
  8
0CH97TEST
 10
-16220.75
 20
79893.83
  0
VERTEX
  8
0CH97TEST
 10
-16490.62
 20
79654.50
  0
VERTEX
  8
0CH97TEST
 10
-17044.56
 20
79586.09
  0
VERTEX
  8
0CH97TEST
 10
-17965.24
 20
79884.48
  0
VERTEX
  8
0CH97TEST
 10
-18716.13
 20
80393.70
  0
VERTEX
  8
0CH97TEST
 10
-18933.88
 20
80842.75
  0
VERTEX
  8
0CH97TEST
 10
-19204.86
 20
82841.88
  0
VERTEX
  8
0CH97TEST
 10
-19667.52
 20
83790.59
  0
VERTEX
  8
0CH97TEST
 10
-19875.65
 20
83961.38
  0
VERTEX
  8
0CH97TEST
 10
-20668.24
 20
84214.38
  0
VERTEX
  8
0CH97TEST
 10
-21429.37
 20
84290.48
  0
VERTEX
  8
0CH97TEST
 10
-22586.88
 20
84123.45
  0
VERTEX
  8
0CH97TEST
 10
-24216.46
 20
83712.99
  0
VERTEX
  8
0CH97TEST
 10
-25038.64
 20
84092.25
  0
VERTEX
  8
0CH97TEST
 10
-25468.84
 20
84103.01
  0
VERTEX
  8
0CH97TEST
 10
-26115.04
 20
83775.84
  0
VERTEX
  8
0CH97TEST
 10
-26176.89
 20
83366.79
  0
VERTEX
  8
0CH97TEST
 10
-26479.14
 20
82594.03
  0
VERTEX
  8
0CH97TEST
 10
-27571.28
 20
81261.65
  0
VERTEX
  8
0CH97TEST
 10
-27991.08
 20
80967.98
  0
VERTEX
  8
0CH97TEST
 10
-29066.22
 20
80622.84
  0
VERTEX
  8
0CH97TEST
 10
-29141.97
 20
80599.88
  0
VERTEX
  8
0CH97TEST
 10
-30178.95
 20
80283.59
  0
VERTEX
  8
0CH97TEST
 10
-30461.55
 20
80220.57
  0
VERTEX
  8
0CH97TEST
 10
-34099.26
 20
79406.62
  0
VERTEX
  8
0CH97TEST
 10
-34863.82
 20
79033.16
  0
VERTEX
  8
0CH97TEST
 10
-35667.70
 20
78639.69
  0
VERTEX
  8
0CH97TEST
 10
-36120.33
 20
78547.01
  0
VERTEX
  8
0CH97TEST
 10
-37265.06
 20
78684.38
  0
VERTEX
  8
0CH97TEST
 10
-38099.21
 20
79286.54
  0
VERTEX
  8
0CH97TEST
 10
-38772.94
 20
79773.66
  0
VERTEX
  8
0CH97TEST
 10
-39727.81
 20
80826.48
  0
VERTEX
  8
0CH97TEST
 10
-39373.69
 20
81710.20
  0
VERTEX
  8
0CH97TEST
 10
-39023.14
 20
81824.52
  0
VERTEX
  8
0CH97TEST
 10
-38728.49
 20
82800.30
  0
VERTEX
  8
0CH97TEST
 10
-38553.24
 20
82856.83
  0
VERTEX
  8
0CH97TEST
 10
-38460.10
 20
83089.52
  0
VERTEX
  8
0CH97TEST
 10
-37993.92
 20
82801.02
  0
VERTEX
  8
0CH97TEST
 10
-37175.41
 20
83288.24
  0
VERTEX
  8
0CH97TEST
 10
-37287.40
 20
84300.62
  0
VERTEX
  8
0CH97TEST
 10
-37649.06
 20
84570.16
  0
VERTEX
  8
0CH97TEST
 10
-38067.91
 20
84881.66
  0
VERTEX
  8
0CH97TEST
 10
-37138.88
 20
85903.48
  0
VERTEX
  8
0CH97TEST
 10
-37577.27
 20
86754.62
  0
VERTEX
  8
0CH97TEST
 10
-38229.45
 20
86579.84
  0
VERTEX
  8
0CH97TEST
 10
-38717.39
 20
86053.66
  0
VERTEX
  8
0CH97TEST
 10
-39541.36
 20
85719.81
  0
VERTEX
  8
0CH97TEST
 10
-40105.16
 20
85191.29
  0
VERTEX
  8
0CH97TEST
 10
-40146.04
 20
85122.43
  0
VERTEX
  8
0CH97TEST
 10
-40463.82
 20
84594.39
  0
VERTEX
  8
0CH97TEST
 10
-40565.00
 20
84590.42
  0
VERTEX
  8
0CH97TEST
 10
-41174.05
 20
83907.49
  0
VERTEX
  8
0CH97TEST
 10
-42158.68
 20
83334.20
  0
VERTEX
  8
0CH97TEST
 10
-43769.36
 20
83440.57
  0
VERTEX
  8
0CH97TEST
 10
-43933.89
 20
83453.68
  0
SEQEND
  8
0CH97TEST
  0
POLYLINE
  8
0CH97TEST
 66
     1
  0
VERTEX
  8
0CH97TEST
 10
122882.73
 20
-53178.21
  0
VERTEX
  8
0CH97TEST
 10
123613.34
 20
-53736.93
  0
VERTEX
  8
0CH97TEST
 10
125679.75
 20
-52694.68
  0
VERTEX
  8
0CH97TEST
 10
127390.64
 20
-50951.51
  0
VERTEX
  8
0CH97TEST
 10
128516.30
 20
-50528.40
  0
VERTEX
  8
0CH97TEST
 10
129684.86
 20
-50587.84
  0
VERTEX
  8
0CH97TEST
 10
131120.84
 20
-50331.10
  0
VERTEX
  8
0CH97TEST
 10
133331.56
 20
-49078.10
  0
VERTEX
  8
0CH97TEST
 10
134146.62
 20
-49176.72
  0
VERTEX
  8
0CH97TEST
 10
134150.41
 20
-49278.04
  0
VERTEX
  8
0CH97TEST
 10
135077.00
 20
-49651.13
  0
VERTEX
  8
0CH97TEST
 10
136710.88
 20
-48573.10
  0
VERTEX
  8
0CH97TEST
 10
137249.27
 20
-48732.30
  0
VERTEX
  8
0CH97TEST
 10
137919.89
 20
-50410.84
  0
VERTEX
  8
0CH97TEST
 10
139865.23
 20
-51587.25
  0
VERTEX
  8
0CH97TEST
 10
140137.23
 20
-52086.30
  0
VERTEX
  8
0CH97TEST
 10
140076.31
 20
-53183.28
  0
VERTEX
  8
0CH97TEST
 10
139696.45
 20
-53883.70
  0
VERTEX
  8
0CH97TEST
 10
139553.91
 20
-54831.50
  0
VERTEX
  8
0CH97TEST
 10
140496.69
 20
-56323.59
  0
VERTEX
  8
0CH97TEST
 10
140181.50
 20
-58091.37
  0
VERTEX
  8
0CH97TEST
 10
140852.67
 20
-58753.39
  0
VERTEX
  8
0CH97TEST
 10
141484.08
 20
-59035.68
  0
VERTEX
  8
0CH97TEST
 10
141480.91
 20
-58934.34
  0
VERTEX
  8
0CH97TEST
 10
143786.86
 20
-60274.68
  0
VERTEX
  8
0CH97TEST
 10
144813.22
 20
-61280.43
  0
VERTEX
  8
0CH97TEST
 10
145065.89
 20
-62620.32
  0
VERTEX
  8
0CH97TEST
 10
144294.12
 20
-65066.70
  0
VERTEX
  8
0CH97TEST
 10
144934.62
 20
-65247.44
  0
VERTEX
  8
0CH97TEST
 10
145789.34
 20
-65725.07
  0
VERTEX
  8
0CH97TEST
 10
145792.52
 20
-65826.41
  0
VERTEX
  8
0CH97TEST
 10
146531.41
 20
-65900.65
  0
VERTEX
  8
0CH97TEST
 10
147446.25
 20
-64594.87
  0
VERTEX
  8
0CH97TEST
 10
148826.31
 20
-64874.68
  0
VERTEX
  8
0CH97TEST
 10
150484.78
 20
-65144.29
  0
VERTEX
  8
0CH97TEST
 10
151269.00
 20
-65090.38
  0
VERTEX
  8
0CH97TEST
 10
152308.58
 20
-64390.05
  0
VERTEX
  8
0CH97TEST
 10
152340.48
 20
-63879.63
  0
VERTEX
  8
0CH97TEST
 10
154095.08
 20
-61269.25
  0
VERTEX
  8
0CH97TEST
 10
153112.94
 20
-59396.56
  0
VERTEX
  8
0CH97TEST
 10
151990.00
 20
-57834.06
  0
VERTEX
  8
0CH97TEST
 10
150082.14
 20
-55639.14
  0
VERTEX
  8
0CH97TEST
 10
148978.55
 20
-53899.12
  0
VERTEX
  8
0CH97TEST
 10
148809.31
 20
-52759.73
  0
VERTEX
  8
0CH97TEST
 10
148969.89
 20
-51608.81
  0
VERTEX
  8
0CH97TEST
 10
149663.86
 20
-50488.39
  0
VERTEX
  8
0CH97TEST
 10
149943.39
 20
-49129.96
  0
VERTEX
  8
0CH97TEST
 10
150471.83
 20
-48345.80
  0
VERTEX
  8
0CH97TEST
 10
152677.47
 20
-46966.46
  0
VERTEX
  8
0CH97TEST
 10
152877.39
 20
-46195.05
  0
VERTEX
  8
0CH97TEST
 10
152571.03
 20
-44781.27
  0
VERTEX
  8
0CH97TEST
 10
151435.55
 20
-44238.32
  0
VERTEX
  8
0CH97TEST
 10
150928.61
 20
-42882.55
  0
VERTEX
  8
0CH97TEST
 10
150541.41
 20
-42693.22
  0
VERTEX
  8
0CH97TEST
 10
148438.52
 20
-43432.79
  0
VERTEX
  8
0CH97TEST
 10
146725.25
 20
-43723.81
  0
VERTEX
  8
0CH97TEST
 10
146068.77
 20
-43112.60
  0
VERTEX
  8
0CH97TEST
 10
145214.53
 20
-43323.34
  0
VERTEX
  8
0CH97TEST
 10
143766.17
 20
-41186.81
  0
VERTEX
  8
0CH97TEST
 10
143791.72
 20
-39812.25
  0
VERTEX
  8
0CH97TEST
 10
144151.47
 20
-38576.95
  0
VERTEX
  8
0CH97TEST
 10
143483.73
 20
-36973.26
  0
VERTEX
  8
0CH97TEST
 10
143769.89
 20
-35131.25
  0
VERTEX
  8
0CH97TEST
 10
144261.56
 20
-34017.10
  0
VERTEX
  8
0CH97TEST
 10
144528.39
 20
-33016.08
  0
VERTEX
  8
0CH97TEST
 10
144108.19
 20
-31249.95
  0
VERTEX
  8
0CH97TEST
 10
144124.89
 20
-31020.42
  0
VERTEX
  8
0CH97TEST
 10
145823.58
 20
-28947.37
  0
VERTEX
  8
0CH97TEST
 10
146357.55
 20
-27629.59
  0
VERTEX
  8
0CH97TEST
 10
147264.30
 20
-26782.11
  0
VERTEX
  8
0CH97TEST
 10
147793.84
 20
-26024.83
  0
VERTEX
  8
0CH97TEST
 10
147621.86
 20
-24808.69
  0
VERTEX
  8
0CH97TEST
 10
147909.06
 20
-23653.81
  0
VERTEX
  8
0CH97TEST
 10
148334.25
 20
-23510.93
  0
VERTEX
  8
0CH97TEST
 10
149687.09
 20
-23740.86
  0
VERTEX
  8
0CH97TEST
 10
150342.48
 20
-23640.05
  0
VERTEX
  8
0CH97TEST
 10
152350.33
 20
-22420.38
  0
VERTEX
  8
0CH97TEST
 10
154162.84
 20
-21387.08
  0
VERTEX
  8
0CH97TEST
 10
155023.03
 20
-21329.70
  0
VERTEX
  8
0CH97TEST
 10
155902.36
 20
-21806.38
  0
VERTEX
  8
0CH97TEST
 10
156509.23
 20
-21758.33
  0
VERTEX
  8
0CH97TEST
 10
157785.75
 20
-19954.93
  0
VERTEX
  8
0CH97TEST
 10
158101.95
 20
-20274.63
  0
VERTEX
  8
0CH97TEST
 10
158297.55
 20
-21437.72
  0
VERTEX
  8
0CH97TEST
 10
159177.06
 20
-22601.38
  0
VERTEX
  8
0CH97TEST
 10
159155.23
 20
-23364.95
  0
VERTEX
  8
0CH97TEST
 10
158627.83
 20
-24200.04
  0
VERTEX
  8
0CH97TEST
 10
158499.28
 20
-25501.53
  0
VERTEX
  8
0CH97TEST
 10
158928.38
 20
-26147.52
  0
VERTEX
  8
0CH97TEST
 10
159527.17
 20
-26557.70
  0
VERTEX
  8
0CH97TEST
 10
159857.05
 20
-26571.42
  0
VERTEX
  8
0CH97TEST
 10
160229.77
 20
-26354.41
  0
VERTEX
  8
0CH97TEST
 10
160808.25
 20
-26231.16
  0
VERTEX
  8
0CH97TEST
 10
162029.83
 20
-27050.46
  0
VERTEX
  8
0CH97TEST
 10
162805.19
 20
-28803.76
  0
VERTEX
  8
0CH97TEST
 10
163386.97
 20
-29443.19
  0
VERTEX
  8
0CH97TEST
 10
163894.33
 20
-29450.60
  0
VERTEX
  8
0CH97TEST
 10
165101.50
 20
-29201.56
  0
VERTEX
  8
0CH97TEST
 10
166452.03
 20
-29381.17
  0
VERTEX
  8
0CH97TEST
 10
167190.72
 20
-28793.70
  0
VERTEX
  8
0CH97TEST
 10
168301.89
 20
-28675.69
  0
VERTEX
  8
0CH97TEST
 10
169459.34
 20
-29117.20
  0
VERTEX
  8
0CH97TEST
 10
169803.25
 20
-29485.62
  0
VERTEX
  8
0CH97TEST
 10
170286.12
 20
-29518.64
  0
VERTEX
  8
0CH97TEST
 10
170925.80
 20
-29011.17
  0
VERTEX
  8
0CH97TEST
 10
172187.62
 20
-28837.23
  0
VERTEX
  8
0CH97TEST
 10
173877.91
 20
-29970.92
  0
VERTEX
  8
0CH97TEST
 10
174642.08
 20
-30070.15
  0
VERTEX
  8
0CH97TEST
 10
175142.83
 20
-29898.55
  0
VERTEX
  8
0CH97TEST
 10
175670.06
 20
-29089.98
  0
VERTEX
  8
0CH97TEST
 10
176336.16
 20
-26546.17
  0
VERTEX
  8
0CH97TEST
 10
176234.50
 20
-26549.15
  0
VERTEX
  8
0CH97TEST
 10
176961.97
 20
-24970.22
  0
VERTEX
  8
0CH97TEST
 10
177062.78
 20
-24967.25
  0
VERTEX
  8
0CH97TEST
 10
176883.44
 20
-23548.68
  0
VERTEX
  8
0CH97TEST
 10
177083.55
 20
-22116.38
  0
VERTEX
  8
0CH97TEST
 10
177024.17
 20
-21888.95
  0
VERTEX
  8
0CH97TEST
 10
177125.66
 20
-21885.96
  0
VERTEX
  8
0CH97TEST
 10
176636.98
 20
-21012.52
  0
VERTEX
  8
0CH97TEST
 10
174955.77
 20
-19446.53
  0
VERTEX
  8
0CH97TEST
 10
173947.81
 20
-18924.98
  0
VERTEX
  8
0CH97TEST
 10
172551.08
 20
-18874.08
  0
VERTEX
  8
0CH97TEST
 10
170615.83
 20
-19326.66
  0
VERTEX
  8
0CH97TEST
 10
170096.12
 20
-18990.88
  0
VERTEX
  8
0CH97TEST
 10
169957.50
 20
-17977.99
  0
VERTEX
  8
0CH97TEST
 10
169528.19
 20
-16670.74
  0
VERTEX
  8
0CH97TEST
 10
168658.61
 20
-14412.53
  0
VERTEX
  8
0CH97TEST
 10
168850.92
 20
-13464.99
  0
VERTEX
  8
0CH97TEST
 10
169315.83
 20
-13014.76
  0
VERTEX
  8
0CH97TEST
 10
171558.12
 20
-10591.38
  0
VERTEX
  8
0CH97TEST
 10
170119.81
 20
-8735.42
  0
VERTEX
  8
0CH97TEST
 10
170896.34
 20
-7816.57
  0
VERTEX
  8
0CH97TEST
 10
173322.28
 20
-6250.40
  0
VERTEX
  8
0CH97TEST
 10
173430.14
 20
-5738.85
  0
VERTEX
  8
0CH97TEST
 10
173036.89
 20
-4709.21
  0
VERTEX
  8
0CH97TEST
 10
172155.50
 20
-3520.89
  0
VERTEX
  8
0CH97TEST
 10
171841.69
 20
-2565.28
  0
VERTEX
  8
0CH97TEST
 10
172239.02
 20
-1685.97
  0
VERTEX
  8
0CH97TEST
 10
173272.77
 20
-858.66
  0
VERTEX
  8
0CH97TEST
 10
173778.38
 20
-127.18
  0
VERTEX
  8
0CH97TEST
 10
174004.38
 20
1967.41
  0
VERTEX
  8
0CH97TEST
 10
174295.83
 20
2308.64
  0
VERTEX
  8
0CH97TEST
 10
174900.22
 20
3756.10
  0
VERTEX
  8
0CH97TEST
 10
175137.59
 20
5545.10
  0
VERTEX
  8
0CH97TEST
 10
175096.84
 20
5742.10
  0
VERTEX
  8
0CH97TEST
 10
174859.59
 20
6883.14
  0
VERTEX
  8
0CH97TEST
 10
174672.22
 20
8504.36
  0
VERTEX
  8
0CH97TEST
 10
175130.78
 20
9792.70
  0
VERTEX
  8
0CH97TEST
 10
175507.48
 20
11918.55
  0
VERTEX
  8
0CH97TEST
 10
176302.86
 20
12153.38
  0
VERTEX
  8
0CH97TEST
 10
176283.77
 20
13234.19
  0
VERTEX
  8
0CH97TEST
 10
176468.45
 20
14435.62
  0
VERTEX
  8
0CH97TEST
 10
174930.47
 20
15677.46
  0
VERTEX
  8
0CH97TEST
 10
174232.94
 20
16085.23
  0
VERTEX
  8
0CH97TEST
 10
173646.70
 20
16192.88
  0
VERTEX
  8
0CH97TEST
 10
172781.47
 20
16340.01
  0
VERTEX
  8
0CH97TEST
 10
171795.42
 20
17016.82
  0
VERTEX
  8
0CH97TEST
 10
171231.48
 20
17225.51
  0
VERTEX
  8
0CH97TEST
 10
171343.22
 20
17538.10
  0
VERTEX
  8
0CH97TEST
 10
171021.44
 20
18696.76
  0
VERTEX
  8
0CH97TEST
 10
168830.27
 20
21031.55
  0
VERTEX
  8
0CH97TEST
 10
168420.45
 20
21143.43
  0
VERTEX
  8
0CH97TEST
 10
167273.97
 20
20642.99
  0
VERTEX
  8
0CH97TEST
 10
165423.62
 20
19964.89
  0
VERTEX
  8
0CH97TEST
 10
164865.27
 20
19307.32
  0
VERTEX
  8
0CH97TEST
 10
164230.23
 20
16638.71
  0
VERTEX
  8
0CH97TEST
 10
163582.00
 20
15673.25
  0
VERTEX
  8
0CH97TEST
 10
162537.80
 20
15126.09
  0
VERTEX
  8
0CH97TEST
 10
162254.94
 20
14555.67
  0
VERTEX
  8
0CH97TEST
 10
162762.69
 20
13176.74
  0
VERTEX
  8
0CH97TEST
 10
161460.08
 20
12084.64
  0
VERTEX
  8
0CH97TEST
 10
161306.81
 20
12104.68
  0
VERTEX
  8
0CH97TEST
 10
160312.48
 20
12271.36
  0
VERTEX
  8
0CH97TEST
 10
158583.64
 20
13097.59
  0
VERTEX
  8
0CH97TEST
 10
158158.94
 20
12929.29
  0
VERTEX
  8
0CH97TEST
 10
157413.95
 20
11832.56
  0
VERTEX
  8
0CH97TEST
 10
157514.91
 20
11836.50
  0
VERTEX
  8
0CH97TEST
 10
157261.30
 20
10479.50
  0
VERTEX
  8
0CH97TEST
 10
157160.31
 20
10475.57
  0
VERTEX
  8
0CH97TEST
 10
156680.30
 20
9745.35
  0
VERTEX
  8
0CH97TEST
 10
156782.02
 20
9749.30
  0
VERTEX
  8
0CH97TEST
 10
156981.39
 20
7111.25
  0
VERTEX
  8
0CH97TEST
 10
156653.11
 20
6411.77
  0
VERTEX
  8
0CH97TEST
 10
155007.78
 20
6350.98
  0
VERTEX
  8
0CH97TEST
 10
153781.62
 20
5924.62
  0
VERTEX
  8
0CH97TEST
 10
151163.38
 20
4072.10
  0
VERTEX
  8
0CH97TEST
 10
149634.70
 20
3608.83
  0
VERTEX
  8
0CH97TEST
 10
148241.06
 20
3582.98
  0
VERTEX
  8
0CH97TEST
 10
147362.34
 20
3371.98
  0
VERTEX
  8
0CH97TEST
 10
145445.28
 20
5158.07
  0
VERTEX
  8
0CH97TEST
 10
144051.33
 20
5157.79
  0
VERTEX
  8
0CH97TEST
 10
143427.83
 20
5566.68
  0
VERTEX
  8
0CH97TEST
 10
142530.67
 20
7186.89
  0
VERTEX
  8
0CH97TEST
 10
140974.39
 20
8834.04
  0
VERTEX
  8
0CH97TEST
 10
139716.89
 20
9247.01
  0
VERTEX
  8
0CH97TEST
 10
139269.88
 20
9254.38
  0
VERTEX
  8
0CH97TEST
 10
138804.12
 20
9263.47
  0
VERTEX
  8
0CH97TEST
 10
137914.33
 20
10019.32
  0
VERTEX
  8
0CH97TEST
 10
137410.72
 20
10610.64
  0
VERTEX
  8
0CH97TEST
 10
136270.75
 20
10594.66
  0
VERTEX
  8
0CH97TEST
 10
135428.02
 20
10766.40
  0
VERTEX
  8
0CH97TEST
 10
134830.83
 20
10464.76
  0
VERTEX
  8
0CH97TEST
 10
133336.39
 20
11123.19
  0
VERTEX
  8
0CH97TEST
 10
132141.98
 20
11891.74
  0
VERTEX
  8
0CH97TEST
 10
131551.34
 20
12098.89
  0
VERTEX
  8
0CH97TEST
 10
131546.56
 20
12226.92
  0
VERTEX
  8
0CH97TEST
 10
130642.86
 20
12676.32
  0
VERTEX
  8
0CH97TEST
 10
130339.13
 20
12665.43
  0
VERTEX
  8
0CH97TEST
 10
129654.70
 20
13352.29
  0
VERTEX
  8
0CH97TEST
 10
129683.65
 20
13938.02
  0
VERTEX
  8
0CH97TEST
 10
129833.47
 20
15368.20
  0
VERTEX
  8
0CH97TEST
 10
129340.27
 20
16367.29
  0
VERTEX
  8
0CH97TEST
 10
130002.73
 20
18325.00
  0
VERTEX
  8
0CH97TEST
 10
130654.95
 20
19875.24
  0
VERTEX
  8
0CH97TEST
 10
129392.04
 20
21126.91
  0
VERTEX
  8
0CH97TEST
 10
129664.67
 20
21975.92
  0
VERTEX
  8
0CH97TEST
 10
129434.05
 20
22730.39
  0
VERTEX
  8
0CH97TEST
 10
128720.65
 20
22830.74
  0
VERTEX
  8
0CH97TEST
 10
126307.02
 20
21623.22
  0
VERTEX
  8
0CH97TEST
 10
124726.48
 20
22556.41
  0
VERTEX
  8
0CH97TEST
 10
123613.80
 20
23177.24
  0
VERTEX
  8
0CH97TEST
 10
123610.01
 20
23279.42
  0
VERTEX
  8
0CH97TEST
 10
122508.50
 20
24281.27
  0
VERTEX
  8
0CH97TEST
 10
121359.25
 20
24519.06
  0
VERTEX
  8
0CH97TEST
 10
120450.09
 20
24433.54
  0
VERTEX
  8
0CH97TEST
 10
119270.81
 20
24797.98
  0
VERTEX
  8
0CH97TEST
 10
117516.01
 20
24962.02
  0
VERTEX
  8
0CH97TEST
 10
117511.40
 20
25088.79
  0
VERTEX
  8
0CH97TEST
 10
116152.49
 20
25550.42
  0
VERTEX
  8
0CH97TEST
 10
113661.63
 20
26397.48
  0
VERTEX
  8
0CH97TEST
 10
111731.59
 20
26504.28
  0
VERTEX
  8
0CH97TEST
 10
110612.35
 20
25929.68
  0
VERTEX
  8
0CH97TEST
 10
109051.68
 20
26330.20
  0
VERTEX
  8
0CH97TEST
 10
108841.09
 20
26373.00
  0
SEQEND
  8
0CH97TEST
  0
POLYLINE
  8
0CH97TEST
 66
     1
  0
VERTEX
  8
0CH97TEST
 10
-43933.89
 20
83453.68
  0
VERTEX
  8
0CH97TEST
 10
-44807.73
 20
83524.75
  0
VERTEX
  8
0CH97TEST
 10
-45007.74
 20
83881.32
  0
VERTEX
  8
0CH97TEST
 10
-46085.20
 20
83834.96
  0
VERTEX
  8
0CH97TEST
 10
-46185.46
 20
83806.90
  0
VERTEX
  8
0CH97TEST
 10
-46289.59
 20
83664.34
  0
VERTEX
  8
0CH97TEST
 10
-47175.84
 20
82449.33
  0
VERTEX
  8
0CH97TEST
 10
-47961.23
 20
81024.49
  0
VERTEX
  8
0CH97TEST
 10
-48634.81
 20
80281.77
  0
VERTEX
  8
0CH97TEST
 10
-50057.64
 20
78713.62
  0
VERTEX
  8
0CH97TEST
 10
-50299.21
 20
76951.07
  0
VERTEX
  8
0CH97TEST
 10
-49349.85
 20
75891.90
  0
VERTEX
  8
0CH97TEST
 10
-49167.46
 20
75034.37
  0
VERTEX
  8
0CH97TEST
 10
-50148.11
 20
73398.07
  0
VERTEX
  8
0CH97TEST
 10
-51113.15
 20
72753.55
  0
VERTEX
  8
0CH97TEST
 10
-51689.71
 20
72580.84
  0
VERTEX
  8
0CH97TEST
 10
-52124.27
 20
72693.27
  0
VERTEX
  8
0CH97TEST
 10
-52313.97
 20
73041.94
  0
VERTEX
  8
0CH97TEST
 10
-54492.12
 20
74464.07
  0
VERTEX
  8
0CH97TEST
 10
-55254.61
 20
74539.05
  0
VERTEX
  8
0CH97TEST
 10
-56335.65
 20
72874.59
  0
VERTEX
  8
0CH97TEST
 10
-55515.28
 20
72597.86
  0
VERTEX
  8
0CH97TEST
 10
-54677.74
 20
72551.00
  0
VERTEX
  8
0CH97TEST
 10
-54022.82
 20
72012.17
  0
VERTEX
  8
0CH97TEST
 10
-54099.59
 20
71961.97
  0
VERTEX
  8
0CH97TEST
 10
-54154.82
 20
71376.25
  0
VERTEX
  8
0CH97TEST
 10
-54498.18
 20
71059.16
  0
VERTEX
  8
0CH97TEST
 10
-54855.10
 20
71121.43
  0
VERTEX
  8
0CH97TEST
 10
-56672.75
 20
68795.83
  0
VERTEX
  8
0CH97TEST
 10
-57755.50
 20
67892.20
  0
VERTEX
  8
0CH97TEST
 10
-58576.88
 20
67482.05
  0
VERTEX
  8
0CH97TEST
 10
-60119.34
 20
67402.14
  0
VERTEX
  8
0CH97TEST
 10
-62267.94
 20
67986.94
  0
VERTEX
  8
0CH97TEST
 10
-63835.66
 20
67907.00
  0
VERTEX
  8
0CH97TEST
 10
-64088.69
 20
67896.59
  0
VERTEX
  8
0CH97TEST
 10
-67207.12
 20
67253.88
  0
VERTEX
  8
0CH97TEST
 10
-68613.58
 20
66187.09
  0
VERTEX
  8
0CH97TEST
 10
-69279.38
 20
66392.98
  0
VERTEX
  8
0CH97TEST
 10
-69797.76
 20
67441.80
  0
VERTEX
  8
0CH97TEST
 10
-70446.31
 20
67876.69
  0
VERTEX
  8
0CH97TEST
 10
-72193.02
 20
67840.14
  0
VERTEX
  8
0CH97TEST
 10
-72553.44
 20
67948.92
  0
VERTEX
  8
0CH97TEST
 10
-73780.41
 20
68318.80
  0
VERTEX
  8
0CH97TEST
 10
-74584.32
 20
68849.42
  0
VERTEX
  8
0CH97TEST
 10
-74284.93
 20
69698.73
  0
VERTEX
  8
0CH97TEST
 10
-74052.20
 20
71003.63
  0
VERTEX
  8
0CH97TEST
 10
-73268.84
 20
73216.68
  0
VERTEX
  8
0CH97TEST
 10
-73413.21
 20
73719.90
  0
VERTEX
  8
0CH97TEST
 10
-74516.58
 20
73401.18
  0
VERTEX
  8
0CH97TEST
 10
-74512.95
 20
73300.17
  0
VERTEX
  8
0CH97TEST
 10
-75411.52
 20
73430.40
  0
VERTEX
  8
0CH97TEST
 10
-76952.73
 20
74967.33
  0
VERTEX
  8
0CH97TEST
 10
-78181.34
 20
75330.53
  0
VERTEX
  8
0CH97TEST
 10
-80776.78
 20
74223.60
  0
VERTEX
  8
0CH97TEST
 10
-81787.83
 20
74161.62
  0
VERTEX
  8
0CH97TEST
 10
-84471.82
 20
74855.81
  0
VERTEX
  8
0CH97TEST
 10
-86042.74
 20
75588.30
  0
VERTEX
  8
0CH97TEST
 10
-86701.45
 20
75589.91
  0
VERTEX
  8
0CH97TEST
 10
-87428.74
 20
75394.92
  0
VERTEX
  8
0CH97TEST
 10
-88759.03
 20
75035.58
  0
VERTEX
  8
0CH97TEST
 10
-89098.09
 20
74591.45
  0
VERTEX
  8
0CH97TEST
 10
-89177.41
 20
73241.48
  0
VERTEX
  8
0CH97TEST
 10
-87905.54
 20
70922.62
  0
VERTEX
  8
0CH97TEST
 10
-88078.62
 20
70078.03
  0
VERTEX
  8
0CH97TEST
 10
-89613.01
 20
69769.43
  0
VERTEX
  8
0CH97TEST
 10
-90761.23
 20
68559.29
  0
VERTEX
  8
0CH97TEST
 10
-92389.86
 20
68045.40
  0
VERTEX
  8
0CH97TEST
 10
-92685.35
 20
66357.35
  0
VERTEX
  8
0CH97TEST
 10
-93065.32
 20
65631.53
  0
VERTEX
  8
0CH97TEST
 10
-94213.09
 20
65133.89
  0
VERTEX
  8
0CH97TEST
 10
-94314.38
 20
65130.85
  0
VERTEX
  8
0CH97TEST
 10
-94446.16
 20
63829.70
  0
VERTEX
  8
0CH97TEST
 10
-94825.26
 20
63078.52
  0
VERTEX
  8
0CH97TEST
 10
-95645.05
 20
62617.89
  0
VERTEX
  8
0CH97TEST
 10
-96640.73
 20
61388.55
  0
VERTEX
  8
0CH97TEST
 10
-97480.97
 20
60062.19
  0
VERTEX
  8
0CH97TEST
 10
-97351.34
 20
59254.00
  0
VERTEX
  8
0CH97TEST
 10
-94999.58
 20
60098.52
  0
VERTEX
  8
0CH97TEST
 10
-94385.19
 20
59916.42
  0
VERTEX
  8
0CH97TEST
 10
-92661.96
 20
59901.42
  0
VERTEX
  8
0CH97TEST
 10
-91256.07
 20
59543.53
  0
VERTEX
  8
0CH97TEST
 10
-89947.45
 20
59792.40
  0
VERTEX
  8
0CH97TEST
 10
-87351.55
 20
60901.38
  0
VERTEX
  8
0CH97TEST
 10
-85932.87
 20
60899.21
  0
VERTEX
  8
0CH97TEST
 10
-84636.56
 20
60055.36
  0
VERTEX
  8
0CH97TEST
 10
-84186.24
 20
58775.83
  0
VERTEX
  8
0CH97TEST
 10
-83621.89
 20
57854.46
  0
VERTEX
  8
0CH97TEST
 10
-83807.70
 20
57502.44
  0
VERTEX
  8
0CH97TEST
 10
-84061.42
 20
56512.94
  0
VERTEX
  8
0CH97TEST
 10
-84732.41
 20
56161.09
  0
VERTEX
  8
0CH97TEST
 10
-85710.84
 20
55924.07
  0
VERTEX
  8
0CH97TEST
 10
-86923.12
 20
55120.90
  0
VERTEX
  8
0CH97TEST
 10
-87120.45
 20
54225.29
  0
VERTEX
  8
0CH97TEST
 10
-88041.07
 20
53025.64
  0
VERTEX
  8
0CH97TEST
 10
-88360.06
 20
52734.71
  0
VERTEX
  8
0CH97TEST
 10
-88708.68
 20
52570.67
  0
VERTEX
  8
0CH97TEST
 10
-89645.99
 20
52616.20
  0
VERTEX
  8
0CH97TEST
 10
-90391.16
 20
52209.26
  0
VERTEX
  8
0CH97TEST
 10
-90865.21
 20
52016.29
  0
VERTEX
  8
0CH97TEST
 10
-91349.52
 20
52127.26
  0
VERTEX
  8
0CH97TEST
 10
-91934.92
 20
52234.34
  0
VERTEX
  8
0CH97TEST
 10
-92236.35
 20
52173.27
  0
VERTEX
  8
0CH97TEST
 10
-92422.25
 20
51684.49
  0
VERTEX
  8
0CH97TEST
 10
-92319.05
 20
50874.71
  0
VERTEX
  8
0CH97TEST
 10
-91860.38
 20
50025.46
  0
VERTEX
  8
0CH97TEST
 10
-91903.68
 20
49057.61
  0
VERTEX
  8
0CH97TEST
 10
-92142.18
 20
47880.25
  0
VERTEX
  8
0CH97TEST
 10
-92051.02
 20
47426.17
  0
VERTEX
  8
0CH97TEST
 10
-91611.15
 20
47136.80
  0
VERTEX
  8
0CH97TEST
 10
-92346.86
 20
46449.95
  0
VERTEX
  8
0CH97TEST
 10
-92796.49
 20
46282.20
  0
VERTEX
  8
0CH97TEST
 10
-93104.50
 20
45662.13
  0
VERTEX
  8
0CH97TEST
 10
-93724.97
 20
45311.75
  0
VERTEX
  8
0CH97TEST
 10
-94108.76
 20
44688.27
  0
VERTEX
  8
0CH97TEST
 10
-94808.47
 20
44436.82
  0
VERTEX
  8
0CH97TEST
 10
-95321.09
 20
43885.91
  0
VERTEX
  8
0CH97TEST
 10
-95940.81
 20
43508.59
  0
VERTEX
  8
0CH97TEST
 10
-97459.49
 20
42034.53
  0
VERTEX
  8
0CH97TEST
 10
-97655.20
 20
41087.88
  0
VERTEX
  8
0CH97TEST
 10
-98052.70
 20
40870.86
  0
VERTEX
  8
0CH97TEST
 10
-98434.67
 20
40197.55
  0
VERTEX
  8
0CH97TEST
 10
-98729.37
 20
39933.49
  0
VERTEX
  8
0CH97TEST
 10
-99983.39
 20
39612.14
  0
VERTEX
  8
0CH97TEST
 10
-100272.92
 20
39195.33
  0
VERTEX
  8
0CH97TEST
 10
-100293.85
 20
39066.71
  0
VERTEX
  8
0CH97TEST
 10
-100104.18
 20
38691.87
  0
VERTEX
  8
0CH97TEST
 10
-99186.82
 20
38494.02
  0
VERTEX
  8
0CH97TEST
 10
-98977.06
 20
38271.61
  0
VERTEX
  8
0CH97TEST
 10
-99144.52
 20
37987.62
  0
VERTEX
  8
0CH97TEST
 10
-100605.41
 20
37047.91
  0
VERTEX
  8
0CH97TEST
 10
-102219.30
 20
35392.93
  0
VERTEX
  8
0CH97TEST
 10
-102816.41
 20
35093.97
  0
VERTEX
  8
0CH97TEST
 10
-103723.92
 20
34250.23
  0
VERTEX
  8
0CH97TEST
 10
-104850.00
 20
33881.83
  0
VERTEX
  8
0CH97TEST
 10
-105395.65
 20
33558.88
  0
VERTEX
  8
0CH97TEST
 10
-106055.23
 20
33613.06
  0
VERTEX
  8
0CH97TEST
 10
-106600.91
 20
33288.95
  0
VERTEX
  8
0CH97TEST
 10
-107456.36
 20
32396.88
  0
VERTEX
  8
0CH97TEST
 10
-107932.19
 20
32253.21
  0
VERTEX
  8
0CH97TEST
 10
-108119.03
 20
31789.50
  0
VERTEX
  8
0CH97TEST
 10
-107729.38
 20
30734.49
  0
VERTEX
  8
0CH97TEST
 10
-107916.97
 20
30296.67
  0
VERTEX
  8
0CH97TEST
 10
-108064.27
 20
30164.86
  0
VERTEX
  8
0CH97TEST
 10
-109931.78
 20
30026.46
  0
VERTEX
  8
0CH97TEST
 10
-110650.93
 20
29595.19
  0
VERTEX
  8
0CH97TEST
 10
-111130.48
 20
28053.46
  0
VERTEX
  8
0CH97TEST
 10
-111597.82
 20
27657.46
  0
VERTEX
  8
0CH97TEST
 10
-112671.65
 20
27240.74
  0
VERTEX
  8
0CH97TEST
 10
-112801.28
 20
26446.85
  0
VERTEX
  8
0CH97TEST
 10
-112874.08
 20
25629.82
  0
VERTEX
  8
0CH97TEST
 10
-112000.30
 20
25279.39
  0
VERTEX
  8
0CH97TEST
 10
-111827.17
 20
24674.52
  0
VERTEX
  8
0CH97TEST
 10
-113914.70
 20
24220.30
  0
VERTEX
  8
0CH97TEST
 10
-115118.53
 20
23135.72
  0
VERTEX
  8
0CH97TEST
 10
-116164.91
 20
21166.22
  0
VERTEX
  8
0CH97TEST
 10
-117034.43
 20
19940.99
  0
VERTEX
  8
0CH97TEST
 10
-117735.17
 20
19686.67
  0
VERTEX
  8
0CH97TEST
 10
-119810.81
 20
19614.81
  0
VERTEX
  8
0CH97TEST
 10
-121402.44
 20
18745.04
  0
VERTEX
  8
0CH97TEST
 10
-122310.13
 20
18611.30
  0
VERTEX
  8
0CH97TEST
 10
-124631.40
 20
17589.40
  0
VERTEX
  8
0CH97TEST
 10
-125643.88
 20
17555.09
  0
VERTEX
  8
0CH97TEST
 10
-126461.58
 20
17017.43
  0
VERTEX
  8
0CH97TEST
 10
-126791.54
 20
17031.24
  0
VERTEX
  8
0CH97TEST
 10
-127261.27
 20
17421.42
  0
VERTEX
  8
0CH97TEST
 10
-128028.23
 20
16886.29
  0
VERTEX
  8
0CH97TEST
 10
-129927.53
 20
14658.28
  0
VERTEX
  8
0CH97TEST
 10
-131969.08
 20
12145.04
  0
VERTEX
  8
0CH97TEST
 10
-132026.44
 20
11609.14
  0
VERTEX
  8
0CH97TEST
 10
-131613.14
 20
10656.78
  0
VERTEX
  8
0CH97TEST
 10
-130266.88
 20
8958.88
  0
VERTEX
  8
0CH97TEST
 10
-129651.55
 20
8182.16
  0
VERTEX
  8
0CH97TEST
 10
-130005.27
 20
4507.38
  0
VERTEX
  8
0CH97TEST
 10
-130405.54
 20
3628.48
  0
VERTEX
  8
0CH97TEST
 10
-131531.14
 20
2469.79
  0
VERTEX
  8
0CH97TEST
 10
-131834.52
 20
1721.23
  0
VERTEX
  8
0CH97TEST
 10
-131866.28
 20
448.18
  0
VERTEX
  8
0CH97TEST
 10
-132642.77
 20
-545.75
  0
VERTEX
  8
0CH97TEST
 10
-132675.78
 20
-1055.45
  0
VERTEX
  8
0CH97TEST
 10
-132294.78
 20
-1804.73
  0
VERTEX
  8
0CH97TEST
 10
-130804.09
 20
-3127.82
  0
VERTEX
  8
0CH97TEST
 10
-130777.55
 20
-3889.17
  0
VERTEX
  8
0CH97TEST
 10
-131935.19
 20
-5583.43
  0
VERTEX
  8
0CH97TEST
 10
-133393.61
 20
-6652.16
  0
VERTEX
  8
0CH97TEST
 10
-135559.34
 20
-7057.07
  0
VERTEX
  8
0CH97TEST
 10
-136961.50
 20
-9015.16
  0
VERTEX
  8
0CH97TEST
 10
-137307.95
 20
-9255.44
  0
VERTEX
  8
0CH97TEST
 10
-137454.64
 20
-9413.31
  0
VERTEX
  8
0CH97TEST
 10
-138391.05
 20
-10183.51
  0
VERTEX
  8
0CH97TEST
 10
-139784.94
 20
-10918.72
  0
VERTEX
  8
0CH97TEST
 10
-139757.14
 20
-10997.44
  0
VERTEX
  8
0CH97TEST
 10
-141539.34
 20
-12226.84
  0
VERTEX
  8
0CH97TEST
 10
-144483.69
 20
-13575.92
  0
VERTEX
  8
0CH97TEST
 10
-145020.42
 20
-14179.07
  0
VERTEX
  8
0CH97TEST
 10
-146080.62
 20
-15767.47
  0
VERTEX
  8
0CH97TEST
 10
-148892.03
 20
-18028.74
  0
VERTEX
  8
0CH97TEST
 10
-150876.70
 20
-20005.78
  0
VERTEX
  8
0CH97TEST
 10
-152872.12
 20
-21678.52
  0
VERTEX
  8
0CH97TEST
 10
-154624.05
 20
-23061.98
  0
VERTEX
  8
0CH97TEST
 10
-157203.44
 20
-25440.96
  0
VERTEX
  8
0CH97TEST
 10
-157688.72
 20
-26069.01
  0
VERTEX
  8
0CH97TEST
 10
-157639.58
 20
-26754.35
  0
VERTEX
  8
0CH97TEST
 10
-155982.67
 20
-28478.44
  0
VERTEX
  8
0CH97TEST
 10
-154873.11
 20
-30500.71
  0
VERTEX
  8
0CH97TEST
 10
-154899.03
 20
-31212.94
  0
VERTEX
  8
0CH97TEST
 10
-156933.77
 20
-33218.27
  0
VERTEX
  8
0CH97TEST
 10
-160270.58
 20
-37889.03
  0
VERTEX
  8
0CH97TEST
 10
-160670.12
 20
-38794.14
  0
VERTEX
  8
0CH97TEST
 10
-160214.95
 20
-39490.33
  0
VERTEX
  8
0CH97TEST
 10
-160126.17
 20
-41319.12
  0
VERTEX
  8
0CH97TEST
 10
-160873.31
 20
-42439.46
  0
VERTEX
  8
0CH97TEST
 10
-161217.91
 20
-43469.51
  0
VERTEX
  8
0CH97TEST
 10
-160937.38
 20
-44248.91
  0
VERTEX
  8
0CH97TEST
 10
-158269.81
 20
-45861.18
  0
VERTEX
  8
0CH97TEST
 10
-157043.33
 20
-46862.45
  0
VERTEX
  8
0CH97TEST
 10
-155828.09
 20
-48270.96
  0
VERTEX
  8
0CH97TEST
 10
-155024.77
 20
-49603.29
  0
VERTEX
  8
0CH97TEST
 10
-154607.12
 20
-50569.62
  0
VERTEX
  8
0CH97TEST
 10
-155001.45
 20
-51627.15
  0
VERTEX
  8
0CH97TEST
 10
-156307.27
 20
-53453.39
  0
VERTEX
  8
0CH97TEST
 10
-157543.27
 20
-55100.00
  0
VERTEX
  8
0CH97TEST
 10
-157814.14
 20
-56788.19
  0
VERTEX
  8
0CH97TEST
 10
-158617.23
 20
-57758.45
  0
VERTEX
  8
0CH97TEST
 10
-159011.89
 20
-58077.38
  0
VERTEX
  8
0CH97TEST
 10
-159070.77
 20
-59301.35
  0
VERTEX
  8
0CH97TEST
 10
-158222.89
 20
-61079.11
  0
VERTEX
  8
0CH97TEST
 10
-158199.98
 20
-61740.41
  0
VERTEX
  8
0CH97TEST
 10
-158614.62
 20
-62212.46
  0
VERTEX
  8
0CH97TEST
 10
-160570.73
 20
-62840.69
  0
VERTEX
  8
0CH97TEST
 10
-160826.59
 20
-62772.36
  0
VERTEX
  8
0CH97TEST
 10
-162767.20
 20
-63120.22
  0
VERTEX
  8
0CH97TEST
 10
-163925.75
 20
-64076.44
  0
VERTEX
  8
0CH97TEST
 10
-165259.61
 20
-63638.72
  0
VERTEX
  8
0CH97TEST
 10
-167056.75
 20
-64464.86
  0
VERTEX
  8
0CH97TEST
 10
-167756.02
 20
-65508.14
  0
VERTEX
  8
0CH97TEST
 10
-168833.61
 20
-65876.24
  0
VERTEX
  8
0CH97TEST
 10
-169045.66
 20
-66340.95
  0
VERTEX
  8
0CH97TEST
 10
-169990.39
 20
-67621.58
  0
VERTEX
  8
0CH97TEST
 10
-169843.45
 20
-68201.99
  0
VERTEX
  8
0CH97TEST
 10
-169375.11
 20
-68542.30
  0
VERTEX
  8
0CH97TEST
 10
-168203.56
 20
-68647.07
  0
VERTEX
  8
0CH97TEST
 10
-168432.05
 20
-70137.05
  0
VERTEX
  8
0CH97TEST
 10
-169822.38
 20
-73189.79
  0
VERTEX
  8
0CH97TEST
 10
-169307.00
 20
-73426.57
  0
VERTEX
  8
0CH97TEST
 10
-166538.05
 20
-73558.83
  0
VERTEX
  8
0CH97TEST
 10
-165201.42
 20
-74072.78
  0
VERTEX
  8
0CH97TEST
 10
-164464.28
 20
-74125.06
  0
VERTEX
  8
0CH97TEST
 10
-163640.16
 20
-73026.21
  0
VERTEX
  8
0CH97TEST
 10
-163002.81
 20
-72393.69
  0
VERTEX
  8
0CH97TEST
 10
-161543.11
 20
-72800.66
  0
VERTEX
  8
0CH97TEST
 10
-160170.03
 20
-72904.98
  0
VERTEX
  8
0CH97TEST
 10
-157464.67
 20
-73396.35
  0
VERTEX
  8
0CH97TEST
 10
-156133.22
 20
-72307.12
  0
VERTEX
  8
0CH97TEST
 10
-153506.38
 20
-71274.33
  0
VERTEX
  8
0CH97TEST
 10
-151824.20
 20
-69161.09
  0
VERTEX
  8
0CH97TEST
 10
-149770.94
 20
-67122.80
  0
VERTEX
  8
0CH97TEST
 10
-146416.75
 20
-65860.14
  0
VERTEX
  8
0CH97TEST
 10
-145569.69
 20
-65423.57
  0
VERTEX
  8
0CH97TEST
 10
-144703.83
 20
-64744.63
  0
VERTEX
  8
0CH97TEST
 10
-144277.02
 20
-63952.86
  0
VERTEX
  8
0CH97TEST
 10
-143852.20
 20
-62851.69
  0
VERTEX
  8
0CH97TEST
 10
-143948.88
 20
-61727.07
  0
VERTEX
  8
0CH97TEST
 10
-144282.62
 20
-61612.20
  0
VERTEX
  8
0CH97TEST
 10
-144713.52
 20
-60889.05
  0
VERTEX
  8
0CH97TEST
 10
-145604.97
 20
-61504.99
  0
VERTEX
  8
0CH97TEST
 10
-146675.39
 20
-62076.58
  0
VERTEX
  8
0CH97TEST
 10
-147445.86
 20
-61798.59
  0
VERTEX
  8
0CH97TEST
 10
-149293.25
 20
-59725.43
  0
VERTEX
  8
0CH97TEST
 10
-148601.22
 20
-58478.84
  0
VERTEX
  8
0CH97TEST
 10
-148499.92
 20
-58475.81
  0
VERTEX
  8
0CH97TEST
 10
-148608.89
 20
-57413.16
  0
VERTEX
  8
0CH97TEST
 10
-149415.42
 20
-56217.47
  0
VERTEX
  8
0CH97TEST
 10
-150335.95
 20
-55994.36
  0
VERTEX
  8
0CH97TEST
 10
-150380.73
 20
-55436.10
  0
VERTEX
  8
0CH97TEST
 10
-147501.80
 20
-50729.58
  0
VERTEX
  8
0CH97TEST
 10
-146816.56
 20
-50018.57
  0
VERTEX
  8
0CH97TEST
 10
-143973.11
 20
-47934.91
  0
VERTEX
  8
0CH97TEST
 10
-143073.33
 20
-46834.84
  0
VERTEX
  8
0CH97TEST
 10
-141112.47
 20
-45620.82
  0
VERTEX
  8
0CH97TEST
 10
-139393.95
 20
-45458.39
  0
VERTEX
  8
0CH97TEST
 10
-136375.31
 20
-44768.75
  0
VERTEX
  8
0CH97TEST
 10
-136122.97
 20
-44734.57
  0
VERTEX
  8
0CH97TEST
 10
-133754.89
 20
-44295.79
  0
VERTEX
  8
0CH97TEST
 10
-131519.14
 20
-42970.26
  0
VERTEX
  8
0CH97TEST
 10
-129958.25
 20
-41924.29
  0
VERTEX
  8
0CH97TEST
 10
-128655.20
 20
-40758.72
  0
VERTEX
  8
0CH97TEST
 10
-127613.66
 20
-40085.89
  0
VERTEX
  8
0CH97TEST
 10
-126323.09
 20
-40015.07
  0
VERTEX
  8
0CH97TEST
 10
-121437.78
 20
-40505.87
  0
VERTEX
  8
0CH97TEST
 10
-117967.42
 20
-40410.20
  0
VERTEX
  8
0CH97TEST
 10
-114746.82
 20
-40424.46
  0
VERTEX
  8
0CH97TEST
 10
-112671.52
 20
-41039.77
  0
VERTEX
  8
0CH97TEST
 10
-112667.90
 20
-41141.24
  0
VERTEX
  8
0CH97TEST
 10
-111059.17
 20
-41465.54
  0
VERTEX
  8
0CH97TEST
 10
-107825.45
 20
-42574.30
  0
VERTEX
  8
0CH97TEST
 10
-106601.81
 20
-42760.68
  0
VERTEX
  8
0CH97TEST
 10
-104258.04
 20
-43798.23
  0
VERTEX
  8
0CH97TEST
 10
-104105.54
 20
-44530.15
  0
VERTEX
  8
0CH97TEST
 10
-104304.92
 20
-45352.29
  0
VERTEX
  8
0CH97TEST
 10
-104946.64
 20
-46569.79
  0
VERTEX
  8
0CH97TEST
 10
-105391.29
 20
-47629.88
  0
VERTEX
  8
0CH97TEST
 10
-105402.45
 20
-48592.73
  0
VERTEX
  8
0CH97TEST
 10
-105400.27
 20
-49539.27
  0
VERTEX
  8
0CH97TEST
 10
-106159.54
 20
-50303.20
  0
VERTEX
  8
0CH97TEST
 10
-107628.76
 20
-51066.71
  0
VERTEX
  8
0CH97TEST
 10
-107894.91
 20
-51433.61
  0
VERTEX
  8
0CH97TEST
 10
-107770.33
 20
-52089.61
  0
VERTEX
  8
0CH97TEST
 10
-106841.08
 20
-53279.60
  0
VERTEX
  8
0CH97TEST
 10
-105908.78
 20
-53832.27
  0
VERTEX
  8
0CH97TEST
 10
-105801.55
 20
-54718.29
  0
VERTEX
  8
0CH97TEST
 10
-105250.01
 20
-55259.50
  0
VERTEX
  8
0CH97TEST
 10
-104608.82
 20
-55464.95
  0
VERTEX
  8
0CH97TEST
 10
-103921.66
 20
-56255.29
  0
VERTEX
  8
0CH97TEST
 10
-103484.04
 20
-56444.38
  0
VERTEX
  8
0CH97TEST
 10
-103064.84
 20
-57549.07
  0
VERTEX
  8
0CH97TEST
 10
-101437.88
 20
-58383.07
  0
VERTEX
  8
0CH97TEST
 10
-101055.55
 20
-59157.77
  0
VERTEX
  8
0CH97TEST
 10
-101642.88
 20
-61927.14
  0
VERTEX
  8
0CH97TEST
 10
-102799.66
 20
-63648.28
  0
VERTEX
  8
0CH97TEST
 10
-103883.66
 20
-64551.65
  0
VERTEX
  8
0CH97TEST
 10
-104464.16
 20
-66074.04
  0
VERTEX
  8
0CH97TEST
 10
-104941.26
 20
-66929.98
  0
VERTEX
  8
0CH97TEST
 10
-105142.68
 20
-68413.48
  0
VERTEX
  8
0CH97TEST
 10
-104886.73
 20
-70644.35
  0
VERTEX
  8
0CH97TEST
 10
-105219.87
 20
-71266.89
  0
VERTEX
  8
0CH97TEST
 10
-106521.29
 20
-72484.23
  0
VERTEX
  8
0CH97TEST
 10
-107114.24
 20
-73649.38
  0
VERTEX
  8
0CH97TEST
 10
-107068.68
 20
-74945.84
  0
VERTEX
  8
0CH97TEST
 10
-106671.72
 20
-75415.27
  0
VERTEX
  8
0CH97TEST
 10
-105221.90
 20
-76255.98
  0
VERTEX
  8
0CH97TEST
 10
-102107.15
 20
-76121.24
  0
VERTEX
  8
0CH97TEST
 10
-101161.83
 20
-76316.10
  0
VERTEX
  8
0CH97TEST
 10
-98655.24
 20
-76915.66
  0
VERTEX
  8
0CH97TEST
 10
-98256.42
 20
-77435.88
  0
VERTEX
  8
0CH97TEST
 10
-98259.40
 20
-78073.03
  0
VERTEX
  8
0CH97TEST
 10
-98473.29
 20
-79200.58
  0
VERTEX
  8
0CH97TEST
 10
-98794.84
 20
-80152.85
  0
VERTEX
  8
0CH97TEST
 10
-98559.01
 20
-81087.45
  0
VERTEX
  8
0CH97TEST
 10
-99756.56
 20
-83088.54
  0
VERTEX
  8
0CH97TEST
 10
-99896.30
 20
-84162.95
  0
VERTEX
  8
0CH97TEST
 10
-99636.12
 20
-85071.27
  0
VERTEX
  8
0CH97TEST
 10
-98866.30
 20
-85323.10
  0
VERTEX
  8
0CH97TEST
 10
-98209.46
 20
-85249.33
  0
VERTEX
  8
0CH97TEST
 10
-96264.41
 20
-82864.87
  0
VERTEX
  8
0CH97TEST
 10
-95658.28
 20
-82792.14
  0
VERTEX
  8
0CH97TEST
 10
-95099.63
 20
-84248.80
  0
VERTEX
  8
0CH97TEST
 10
-94445.22
 20
-84771.47
  0
VERTEX
  8
0CH97TEST
 10
-93664.19
 20
-85395.29
  0
VERTEX
  8
0CH97TEST
 10
-93053.05
 20
-86900.49
  0
VERTEX
  8
0CH97TEST
 10
-91728.13
 20
-88508.49
  0
VERTEX
  8
0CH97TEST
 10
-91281.47
 20
-89663.16
  0
VERTEX
  8
0CH97TEST
 10
-90023.25
 20
-90816.27
  0
VERTEX
  8
0CH97TEST
 10
-88789.88
 20
-93419.99
  0
VERTEX
  8
0CH97TEST
 10
-89861.42
 20
-94679.48
  0
VERTEX
  8
0CH97TEST
 10
-89743.09
 20
-95158.47
  0
VERTEX
  8
0CH97TEST
 10
-89145.98
 20
-95545.22
  0
VERTEX
  8
0CH97TEST
 10
-87741.96
 20
-95801.46
  0
VERTEX
  8
0CH97TEST
 10
-87144.81
 20
-96188.01
  0
VERTEX
  8
0CH97TEST
 10
-86957.82
 20
-97174.01
  0
VERTEX
  8
0CH97TEST
 10
-87372.48
 20
-98360.12
  0
VERTEX
  8
0CH97TEST
 10
-87420.05
 20
-99046.67
  0
SEQEND
  8
0CH97TEST
  0
POLYLINE
  8
0CH97TEST
 66
     1
  0
VERTEX
  8
0CH97TEST
 10
-87420.05
 20
-99046.67
  0
VERTEX
  8
0CH97TEST
 10
-86863.23
 20
-99130.14
  0
VERTEX
  8
0CH97TEST
 10
-86405.62
 20
-99878.59
  0
VERTEX
  8
0CH97TEST
 10
-86532.23
 20
-99883.16
  0
VERTEX
  8
0CH97TEST
 10
-84248.23
 20
-102781.11
  0
VERTEX
  8
0CH97TEST
 10
-83770.79
 20
-104087.46
  0
VERTEX
  8
0CH97TEST
 10
-83872.16
 20
-104091.59
  0
VERTEX
  8
0CH97TEST
 10
-82873.36
 20
-105074.97
  0
VERTEX
  8
0CH97TEST
 10
-82699.04
 20
-106417.41
  0
VERTEX
  8
0CH97TEST
 10
-82352.57
 20
-106889.14
  0
VERTEX
  8
0CH97TEST
 10
-81282.09
 20
-107029.05
  0
VERTEX
  8
0CH97TEST
 10
-79945.39
 20
-105378.73
  0
VERTEX
  8
0CH97TEST
 10
-79078.48
 20
-104787.23
  0
VERTEX
  8
0CH97TEST
 10
-78194.34
 20
-104679.84
  0
VERTEX
  8
0CH97TEST
 10
-76014.09
 20
-106792.33
  0
VERTEX
  8
0CH97TEST
 10
-75068.47
 20
-106987.70
  0
VERTEX
  8
0CH97TEST
 10
-74621.49
 20
-106718.30
  0
VERTEX
  8
0CH97TEST
 10
-74517.26
 20
-106077.77
  0
VERTEX
  8
0CH97TEST
 10
-74712.70
 20
-105575.24
  0
VERTEX
  8
0CH97TEST
 10
-74717.04
 20
-104735.70
  0
VERTEX
  8
0CH97TEST
 10
-73910.74
 20
-103867.01
  0
VERTEX
  8
0CH97TEST
 10
-73158.82
 20
-103611.37
  0
VERTEX
  8
0CH97TEST
 10
-71642.27
 20
-103455.87
  0
VERTEX
  8
0CH97TEST
 10
-70599.02
 20
-103546.92
  0
VERTEX
  8
0CH97TEST
 10
-69238.95
 20
-102555.05
  0
VERTEX
  8
0CH97TEST
 10
-68181.91
 20
-100890.12
  0
VERTEX
  8
0CH97TEST
 10
-67612.67
 20
-100487.11
  0
VERTEX
  8
0CH97TEST
 10
-66928.66
 20
-100463.69
  0
VERTEX
  8
0CH97TEST
 10
-65201.46
 20
-101241.70
  0
VERTEX
  8
0CH97TEST
 10
-64045.00
 20
-100945.99
  0
VERTEX
  8
0CH97TEST
 10
-63384.54
 20
-100974.10
  0
VERTEX
  8
0CH97TEST
 10
-62785.62
 20
-101411.70
  0
VERTEX
  8
0CH97TEST
 10
-60712.71
 20
-102635.68
  0
VERTEX
  8
0CH97TEST
 10
-60215.83
 20
-101625.52
  0
VERTEX
  8
0CH97TEST
 10
-59614.99
 20
-101400.24
  0
VERTEX
  8
0CH97TEST
 10
-58523.80
 20
-101412.93
  0
VERTEX
  8
0CH97TEST
 10
-58073.20
 20
-101243.75
  0
VERTEX
  8
0CH97TEST
 10
-56064.38
 20
-99238.77
  0
VERTEX
  8
0CH97TEST
 10
-54034.03
 20
-98555.50
  0
VERTEX
  8
0CH97TEST
 10
-53671.11
 20
-98058.17
  0
VERTEX
  8
0CH97TEST
 10
-53807.75
 20
-97070.74
  0
VERTEX
  8
0CH97TEST
 10
-53596.89
 20
-96580.12
  0
VERTEX
  8
0CH97TEST
 10
-52309.41
 20
-96407.64
  0
VERTEX
  8
0CH97TEST
 10
-51378.38
 20
-95482.79
  0
VERTEX
  8
0CH97TEST
 10
-50795.60
 20
-95461.80
  0
VERTEX
  8
0CH97TEST
 10
-49822.97
 20
-95706.95
  0
VERTEX
  8
0CH97TEST
 10
-49291.89
 20
-95663.34
  0
VERTEX
  8
0CH97TEST
 10
-49190.55
 20
-95659.91
  0
VERTEX
  8
0CH97TEST
 10
-48582.52
 20
-94925.02
  0
VERTEX
  8
0CH97TEST
 10
-48534.51
 20
-94133.89
  0
VERTEX
  8
0CH97TEST
 10
-47950.12
 20
-92739.58
  0
VERTEX
  8
0CH97TEST
 10
-46588.43
 20
-92512.18
  0
VERTEX
  8
0CH97TEST
 10
-46012.89
 20
-93001.39
  0
VERTEX
  8
0CH97TEST
 10
-45471.90
 20
-93949.68
  0
VERTEX
  8
0CH97TEST
 10
-44898.26
 20
-94387.45
  0
VERTEX
  8
0CH97TEST
 10
-43896.59
 20
-94732.81
  0
VERTEX
  8
0CH97TEST
 10
-42452.53
 20
-94681.97
  0
VERTEX
  8
0CH97TEST
 10
-39963.53
 20
-94059.15
  0
VERTEX
  8
0CH97TEST
 10
-38853.31
 20
-94605.88
  0
VERTEX
  8
0CH97TEST
 10
-38324.80
 20
-95197.56
  0
VERTEX
  8
0CH97TEST
 10
-38174.68
 20
-95854.27
  0
VERTEX
  8
0CH97TEST
 10
-37443.53
 20
-96438.23
  0
VERTEX
  8
0CH97TEST
 10
-35904.39
 20
-96917.90
  0
VERTEX
  8
0CH97TEST
 10
-35798.38
 20
-98467.60
  0
VERTEX
  8
0CH97TEST
 10
-35418.31
 20
-99166.73
  0
VERTEX
  8
0CH97TEST
 10
-35105.21
 20
-99409.89
  0
VERTEX
  8
0CH97TEST
 10
-34341.59
 20
-99485.50
  0
VERTEX
  8
0CH97TEST
 10
-33738.98
 20
-99310.72
  0
VERTEX
  8
0CH97TEST
 10
-32603.49
 20
-98430.80
  0
VERTEX
  8
0CH97TEST
 10
-32608.87
 20
-98277.23
  0
VERTEX
  8
0CH97TEST
 10
-31650.77
 20
-98115.58
  0
VERTEX
  8
0CH97TEST
 10
-31083.46
 20
-98375.55
  0
VERTEX
  8
0CH97TEST
 10
-28804.87
 20
-100382.45
  0
VERTEX
  8
0CH97TEST
 10
-28317.09
 20
-100542.52
  0
VERTEX
  8
0CH97TEST
 10
-27581.58
 20
-99829.90
  0
VERTEX
  8
0CH97TEST
 10
-27001.60
 20
-99732.39
  0
VERTEX
  8
0CH97TEST
 10
-24757.57
 20
-100060.04
  0
VERTEX
  8
0CH97TEST
 10
-23774.06
 20
-99897.26
  0
VERTEX
  8
0CH97TEST
 10
-23167.94
 20
-99112.34
  0
VERTEX
  8
0CH97TEST
 10
-23181.55
 20
-98574.02
  0
VERTEX
  8
0CH97TEST
 10
-23228.11
 20
-96721.51
  0
VERTEX
  8
0CH97TEST
 10
-22916.89
 20
-96200.96
  0
VERTEX
  8
0CH97TEST
 10
-22605.90
 20
-94967.80
  0
VERTEX
  8
0CH97TEST
 10
-22707.21
 20
-94972.09
  0
VERTEX
  8
0CH97TEST
 10
-21062.69
 20
-92723.98
  0
VERTEX
  8
0CH97TEST
 10
-20169.78
 20
-92157.77
  0
VERTEX
  8
0CH97TEST
 10
-16748.82
 20
-92060.41
  0
VERTEX
  8
0CH97TEST
 10
-13979.24
 20
-92190.83
  0
VERTEX
  8
0CH97TEST
 10
-13270.05
 20
-91453.09
  0
VERTEX
  8
0CH97TEST
 10
-12221.93
 20
-89557.15
  0
VERTEX
  8
0CH97TEST
 10
-11881.99
 20
-88424.88
  0
VERTEX
  8
0CH97TEST
 10
-10636.52
 20
-87081.73
  0
VERTEX
  8
0CH97TEST
 10
-10411.42
 20
-86284.69
  0
VERTEX
  8
0CH97TEST
 10
-11011.75
 20
-84396.52
  0
VERTEX
  8
0CH97TEST
 10
-10998.47
 20
-83352.66
  0
VERTEX
  8
0CH97TEST
 10
-10532.78
 20
-82190.42
  0
VERTEX
  8
0CH97TEST
 10
-9295.57
 20
-80620.05
  0
VERTEX
  8
0CH97TEST
 10
-7402.26
 20
-79661.07
  0
VERTEX
  8
0CH97TEST
 10
-5070.85
 20
-79603.23
  0
VERTEX
  8
0CH97TEST
 10
-4297.43
 20
-79243.72
  0
VERTEX
  8
0CH97TEST
 10
-3623.91
 20
-77514.83
  0
VERTEX
  8
0CH97TEST
 10
-2915.75
 20
-76751.28
  0
VERTEX
  8
0CH97TEST
 10
-1390.71
 20
-76137.20
  0
VERTEX
  8
0CH97TEST
 10
-1077.81
 20
-75666.87
  0
VERTEX
  8
0CH97TEST
 10
-1295.53
 20
-73842.05
  0
VERTEX
  8
0CH97TEST
 10
-249.44
 20
-71895.26
  0
VERTEX
  8
0CH97TEST
 10
-167.28
 20
-71359.12
  0
VERTEX
  8
0CH97TEST
 10
-1392.70
 20
-69722.52
  0
VERTEX
  8
0CH97TEST
 10
-2176.98
 20
-66951.19
  0
VERTEX
  8
0CH97TEST
 10
-2581.55
 20
-66278.30
  0
VERTEX
  8
0CH97TEST
 10
-4135.16
 20
-64679.59
  0
VERTEX
  8
0CH97TEST
 10
-6086.84
 20
-63298.97
  0
VERTEX
  8
0CH97TEST
 10
-6200.92
 20
-62946.79
  0
VERTEX
  8
0CH97TEST
 10
-5481.33
 20
-62145.38
  0
VERTEX
  8
0CH97TEST
 10
-4713.30
 20
-61290.05
  0
VERTEX
  8
0CH97TEST
 10
-3369.69
 20
-59154.83
  0
VERTEX
  8
0CH97TEST
 10
-2509.71
 20
-58387.07
  0
VERTEX
  8
0CH97TEST
 10
-1728.21
 20
-58255.86
  0
VERTEX
  8
0CH97TEST
 10
-411.84
 20
-58896.59
  0
VERTEX
  8
0CH97TEST
 10
1563.66
 20
-58825.56
  0
VERTEX
  8
0CH97TEST
 10
2510.63
 20
-58359.08
  0
VERTEX
  8
0CH97TEST
 10
3998.94
 20
-56728.19
  0
VERTEX
  8
0CH97TEST
 10
5053.69
 20
-54323.62
  0
VERTEX
  8
0CH97TEST
 10
6526.98
 20
-53685.11
  0
VERTEX
  8
0CH97TEST
 10
7685.06
 20
-52040.08
  0
VERTEX
  8
0CH97TEST
 10
9882.71
 20
-51096.07
  0
VERTEX
  8
0CH97TEST
 10
11075.46
 20
-50417.02
  0
VERTEX
  8
0CH97TEST
 10
11737.91
 20
-49095.75
  0
VERTEX
  8
0CH97TEST
 10
11444.41
 20
-47986.67
  0
VERTEX
  8
0CH97TEST
 10
10443.06
 20
-47640.24
  0
VERTEX
  8
0CH97TEST
 10
9588.94
 20
-47161.50
  0
VERTEX
  8
0CH97TEST
 10
9417.83
 20
-46633.67
  0
VERTEX
  8
0CH97TEST
 10
9696.11
 20
-45911.71
  0
VERTEX
  8
0CH97TEST
 10
10427.49
 20
-45096.51
  0
VERTEX
  8
0CH97TEST
 10
12257.04
 20
-44495.83
  0
VERTEX
  8
0CH97TEST
 10
13912.59
 20
-43291.40
  0
VERTEX
  8
0CH97TEST
 10
14509.46
 20
-42964.23
  0
VERTEX
  8
0CH97TEST
 10
14931.70
 20
-42720.57
  0
VERTEX
  8
0CH97TEST
 10
17360.71
 20
-41870.38
  0
VERTEX
  8
0CH97TEST
 10
18303.80
 20
-41301.32
  0
VERTEX
  8
0CH97TEST
 10
19459.56
 20
-41005.44
  0
VERTEX
  8
0CH97TEST
 10
21159.96
 20
-41046.37
  0
VERTEX
  8
0CH97TEST
 10
21601.45
 20
-41334.94
  0
VERTEX
  8
0CH97TEST
 10
22542.84
 20
-42828.41
  0
VERTEX
  8
0CH97TEST
 10
22811.99
 20
-43963.76
  0
VERTEX
  8
0CH97TEST
 10
22546.05
 20
-45729.33
  0
VERTEX
  8
0CH97TEST
 10
23051.45
 20
-47085.21
  0
VERTEX
  8
0CH97TEST
 10
23038.98
 20
-47441.99
  0
VERTEX
  8
0CH97TEST
 10
22435.84
 20
-49703.84
  0
VERTEX
  8
0CH97TEST
 10
22833.47
 20
-50885.38
  0
VERTEX
  8
0CH97TEST
 10
23077.03
 20
-51308.20
  0
VERTEX
  8
0CH97TEST
 10
22940.97
 20
-52458.23
  0
VERTEX
  8
0CH97TEST
 10
22526.38
 20
-53618.64
  0
VERTEX
  8
0CH97TEST
 10
22406.94
 20
-55227.13
  0
VERTEX
  8
0CH97TEST
 10
21882.71
 20
-56161.81
  0
VERTEX
  8
0CH97TEST
 10
21222.69
 20
-56847.08
  0
VERTEX
  8
0CH97TEST
 10
20604.80
 20
-58701.59
  0
VERTEX
  8
0CH97TEST
 10
20503.49
 20
-58705.32
  0
VERTEX
  8
0CH97TEST
 10
20559.08
 20
-59543.30
  0
VERTEX
  8
0CH97TEST
 10
22176.89
 20
-62208.61
  0
VERTEX
  8
0CH97TEST
 10
21903.53
 20
-63769.71
  0
VERTEX
  8
0CH97TEST
 10
22116.20
 20
-64042.53
  0
VERTEX
  8
0CH97TEST
 10
23614.08
 20
-65491.36
  0
VERTEX
  8
0CH97TEST
 10
24684.63
 20
-66341.80
  0
VERTEX
  8
0CH97TEST
 10
27051.62
 20
-67275.90
  0
VERTEX
  8
0CH97TEST
 10
27055.30
 20
-67377.27
  0
VERTEX
  8
0CH97TEST
 10
28065.15
 20
-67951.66
  0
VERTEX
  8
0CH97TEST
 10
28700.58
 20
-68692.70
  0
VERTEX
  8
0CH97TEST
 10
30580.13
 20
-71576.80
  0
VERTEX
  8
0CH97TEST
 10
31314.57
 20
-72950.77
  0
VERTEX
  8
0CH97TEST
 10
32342.84
 20
-74032.95
  0
VERTEX
  8
0CH97TEST
 10
32444.59
 20
-74742.91
  0
VERTEX
  8
0CH97TEST
 10
32926.49
 20
-75515.27
  0
VERTEX
  8
0CH97TEST
 10
33359.97
 20
-76211.10
  0
VERTEX
  8
0CH97TEST
 10
34127.63
 20
-77099.72
  0
VERTEX
  8
0CH97TEST
 10
34596.89
 20
-78152.41
  0
VERTEX
  8
0CH97TEST
 10
35795.72
 20
-78338.88
  0
VERTEX
  8
0CH97TEST
 10
37039.68
 20
-78369.18
  0
VERTEX
  8
0CH97TEST
 10
37834.55
 20
-79308.49
  0
VERTEX
  8
0CH97TEST
 10
39904.73
 20
-79742.33
  0
VERTEX
  8
0CH97TEST
 10
39958.16
 20
-79818.75
  0
VERTEX
  8
0CH97TEST
 10
40439.86
 20
-80511.63
  0
VERTEX
  8
0CH97TEST
 10
40986.75
 20
-80570.33
  0
VERTEX
  8
0CH97TEST
 10
41687.57
 20
-80645.30
  0
VERTEX
  8
0CH97TEST
 10
44169.56
 20
-79843.02
  0
VERTEX
  8
0CH97TEST
 10
44414.06
 20
-79820.88
  0
VERTEX
  8
0CH97TEST
 10
44649.96
 20
-79800.49
  0
VERTEX
  8
0CH97TEST
 10
44879.58
 20
-79924.35
  0
VERTEX
  8
0CH97TEST
 10
45869.91
 20
-80462.02
  0
VERTEX
  8
0CH97TEST
 10
47288.91
 20
-81231.64
  0
VERTEX
  8
0CH97TEST
 10
48482.31
 20
-81264.23
  0
VERTEX
  8
0CH97TEST
 10
49377.13
 20
-80061.67
  0
VERTEX
  8
0CH97TEST
 10
51378.86
 20
-82102.36
  0
VERTEX
  8
0CH97TEST
 10
51277.54
 20
-82105.34
  0
VERTEX
  8
0CH97TEST
 10
52237.34
 20
-83394.74
  0
VERTEX
  8
0CH97TEST
 10
53098.24
 20
-84051.13
  0
VERTEX
  8
0CH97TEST
 10
53200.93
 20
-84785.35
  0
VERTEX
  8
0CH97TEST
 10
52921.85
 20
-85483.02
  0
VERTEX
  8
0CH97TEST
 10
52188.62
 20
-86247.38
  0
VERTEX
  8
0CH97TEST
 10
51072.20
 20
-86236.92
  0
VERTEX
  8
0CH97TEST
 10
51730.86
 20
-87613.77
  0
VERTEX
  8
0CH97TEST
 10
51295.12
 20
-88188.84
  0
VERTEX
  8
0CH97TEST
 10
50057.96
 20
-89048.77
  0
VERTEX
  8
0CH97TEST
 10
50054.32
 20
-88946.58
  0
VERTEX
  8
0CH97TEST
 10
48683.57
 20
-90319.74
  0
VERTEX
  8
0CH97TEST
 10
48134.98
 20
-91281.48
  0
VERTEX
  8
0CH97TEST
 10
48310.09
 20
-91911.70
  0
VERTEX
  8
0CH97TEST
 10
48985.28
 20
-92345.76
  0
VERTEX
  8
0CH97TEST
 10
50052.93
 20
-92409.18
  0
VERTEX
  8
0CH97TEST
 10
51836.90
 20
-93337.21
  0
VERTEX
  8
0CH97TEST
 10
54072.42
 20
-95630.42
  0
VERTEX
  8
0CH97TEST
 10
54954.77
 20
-96075.12
  0
VERTEX
  8
0CH97TEST
 10
55306.87
 20
-96105.45
  0
VERTEX
  8
0CH97TEST
 10
55590.95
 20
-96128.32
  0
VERTEX
  8
0CH97TEST
 10
56188.32
 20
-96514.36
  0
VERTEX
  8
0CH97TEST
 10
56223.48
 20
-98881.41
  0
VERTEX
  8
0CH97TEST
 10
56691.05
 20
-99882.40
  0
VERTEX
  8
0CH97TEST
 10
57771.32
 20
-101311.09
  0
VERTEX
  8
0CH97TEST
 10
58396.38
 20
-102136.96
  0
VERTEX
  8
0CH97TEST
 10
58394.58
 20
-103485.89
  0
VERTEX
  8
0CH97TEST
 10
59667.51
 20
-105706.48
  0
VERTEX
  8
0CH97TEST
 10
59794.65
 20
-106414.48
  0
VERTEX
  8
0CH97TEST
 10
59222.05
 20
-106714.87
  0
VERTEX
  8
0CH97TEST
 10
58410.93
 20
-107431.91
  0
VERTEX
  8
0CH97TEST
 10
57896.02
 20
-108622.41
  0
VERTEX
  8
0CH97TEST
 10
57886.77
 20
-109767.79
  0
VERTEX
  8
0CH97TEST
 10
58764.97
 20
-109809.46
  0
VERTEX
  8
0CH97TEST
 10
59788.36
 20
-109036.42
  0
VERTEX
  8
0CH97TEST
 10
60625.32
 20
-109031.56
  0
VERTEX
  8
0CH97TEST
 10
61777.14
 20
-110008.80
  0
VERTEX
  8
0CH97TEST
 10
62545.41
 20
-110210.11
  0
VERTEX
  8
0CH97TEST
 10
63367.62
 20
-109797.81
  0
VERTEX
  8
0CH97TEST
 10
63902.52
 20
-109855.45
  0
VERTEX
  8
0CH97TEST
 10
64301.87
 20
-110375.12
  0
VERTEX
  8
0CH97TEST
 10
64513.44
 20
-111310.35
  0
VERTEX
  8
0CH97TEST
 10
65110.90
 20
-111695.54
  0
VERTEX
  8
0CH97TEST
 10
65845.65
 20
-111668.58
  0
VERTEX
  8
0CH97TEST
 10
66594.68
 20
-111336.80
  0
VERTEX
  8
0CH97TEST
 10
67161.15
 20
-110764.74
  0
VERTEX
  8
0CH97TEST
 10
67219.63
 20
-109684.53
  0
VERTEX
  8
0CH97TEST
 10
68207.95
 20
-107560.68
  0
VERTEX
  8
0CH97TEST
 10
68317.43
 20
-106386.14
  0
VERTEX
  8
0CH97TEST
 10
68619.13
 20
-105611.15
  0
VERTEX
  8
0CH97TEST
 10
69977.40
 20
-104593.79
  0
VERTEX
  8
0CH97TEST
 10
70973.05
 20
-102674.26
  0
VERTEX
  8
0CH97TEST
 10
70810.86
 20
-102400.41
  0
VERTEX
  8
0CH97TEST
 10
70807.17
 20
-102297.80
  0
VERTEX
  8
0CH97TEST
 10
70093.12
 20
-102196.18
  0
VERTEX
  8
0CH97TEST
 10
69669.69
 20
-101015.41
  0
VERTEX
  8
0CH97TEST
 10
68770.08
 20
-100692.20
  0
VERTEX
  8
0CH97TEST
 10
68236.55
 20
-99973.25
  0
VERTEX
  8
0CH97TEST
 10
68232.91
 20
-99871.05
  0
VERTEX
  8
0CH97TEST
 10
66746.39
 20
-100154.33
  0
VERTEX
  8
0CH97TEST
 10
65963.34
 20
-99545.65
  0
VERTEX
  8
0CH97TEST
 10
65664.38
 20
-98997.43
  0
VERTEX
  8
0CH97TEST
 10
65221.93
 20
-96594.46
  0
VERTEX
  8
0CH97TEST
 10
64448.43
 20
-95553.24
  0
VERTEX
  8
0CH97TEST
 10
63872.14
 20
-94352.49
  0
VERTEX
  8
0CH97TEST
 10
64586.88
 20
-93078.31
  0
VERTEX
  8
0CH97TEST
 10
66074.52
 20
-92134.22
  0
VERTEX
  8
0CH97TEST
 10
66059.85
 20
-91730.55
  0
VERTEX
  8
0CH97TEST
 10
66023.65
 20
-90735.77
  0
VERTEX
  8
0CH97TEST
 10
65785.68
 20
-90221.26
  0
VERTEX
  8
0CH97TEST
 10
65225.30
 20
-89008.59
  0
VERTEX
  8
0CH97TEST
 10
65212.19
 20
-87252.56
  0
VERTEX
  8
0CH97TEST
 10
66081.63
 20
-86050.34
  0
VERTEX
  8
0CH97TEST
 10
67288.62
 20
-85063.99
  0
VERTEX
  8
0CH97TEST
 10
67292.32
 20
-85166.19
  0
VERTEX
  8
0CH97TEST
 10
69506.73
 20
-84677.62
  0
VERTEX
  8
0CH97TEST
 10
70146.88
 20
-84146.38
  0
VERTEX
  8
0CH97TEST
 10
70655.48
 20
-82089.91
  0
VERTEX
  8
0CH97TEST
 10
70637.34
 20
-80894.72
  0
VERTEX
  8
0CH97TEST
 10
70040.66
 20
-79134.83
  0
VERTEX
  8
0CH97TEST
 10
70142.33
 20
-78443.91
  0
VERTEX
  8
0CH97TEST
 10
70821.98
 20
-77604.58
  0
VERTEX
  8
0CH97TEST
 10
72289.62
 20
-76813.11
  0
VERTEX
  8
0CH97TEST
 10
72293.32
 20
-76914.45
  0
VERTEX
  8
0CH97TEST
 10
73624.08
 20
-75848.55
  0
VERTEX
  8
0CH97TEST
 10
74412.80
 20
-74522.19
  0
VERTEX
  8
0CH97TEST
 10
75712.36
 20
-73990.27
  0
VERTEX
  8
0CH97TEST
 10
76183.75
 20
-73006.99
  0
VERTEX
  8
0CH97TEST
 10
76682.84
 20
-72784.78
  0
VERTEX
  8
0CH97TEST
 10
77517.85
 20
-72728.77
  0
VERTEX
  8
0CH97TEST
 10
78702.12
 20
-71820.55
  0
VERTEX
  8
0CH97TEST
 10
79138.27
 20
-69869.87
  0
VERTEX
  8
0CH97TEST
 10
79649.16
 20
-68578.66
  0
VERTEX
  8
0CH97TEST
 10
80760.19
 20
-67749.88
  0
VERTEX
  8
0CH97TEST
 10
81117.19
 20
-66413.08
  0
VERTEX
  8
0CH97TEST
 10
81575.32
 20
-65760.42
  0
VERTEX
  8
0CH97TEST
 10
82473.12
 20
-65344.83
  0
VERTEX
  8
0CH97TEST
 10
82757.57
 20
-64800.50
  0
VERTEX
  8
0CH97TEST
 10
82727.29
 20
-63275.00
  0
VERTEX
  8
0CH97TEST
 10
83347.98
 20
-61520.82
  0
VERTEX
  8
0CH97TEST
 10
85099.35
 20
-58783.97
  0
VERTEX
  8
0CH97TEST
 10
86425.97
 20
-55529.19
  0
VERTEX
  8
0CH97TEST
 10
86218.29
 20
-54009.61
  0
VERTEX
  8
0CH97TEST
 10
86285.25
 20
-53065.61
  0
VERTEX
  8
0CH97TEST
 10
85259.74
 20
-51373.10
  0
VERTEX
  8
0CH97TEST
 10
85390.19
 20
-48696.53
  0
VERTEX
  8
0CH97TEST
 10
85183.63
 20
-46514.27
  0
VERTEX
  8
0CH97TEST
 10
84571.44
 20
-45723.23
  0
VERTEX
  8
0CH97TEST
 10
83711.60
 20
-45092.53
  0
VERTEX
  8
0CH97TEST
 10
82810.67
 20
-44030.84
  0
VERTEX
  8
0CH97TEST
 10
82737.75
 20
-43423.51
  0
VERTEX
  8
0CH97TEST
 10
82966.80
 20
-42753.06
  0
VERTEX
  8
0CH97TEST
 10
84357.07
 20
-41938.77
  0
VERTEX
  8
0CH97TEST
 10
84832.05
 20
-41056.93
  0
VERTEX
  8
0CH97TEST
 10
84758.58
 20
-39048.41
  0
VERTEX
  8
0CH97TEST
 10
85016.02
 20
-37767.02
  0
VERTEX
  8
0CH97TEST
 10
85516.16
 20
-36883.49
  0
VERTEX
  8
0CH97TEST
 10
86326.73
 20
-36166.86
  0
VERTEX
  8
0CH97TEST
 10
87906.23
 20
-35676.93
  0
VERTEX
  8
0CH97TEST
 10
90051.09
 20
-35394.92
  0
VERTEX
  8
0CH97TEST
 10
91117.53
 20
-35432.33
  0
VERTEX
  8
0CH97TEST
 10
92029.84
 20
-36111.22
  0
VERTEX
  8
0CH97TEST
 10
91714.38
 20
-37191.46
  0
VERTEX
  8
0CH97TEST
 10
92356.56
 20
-38110.30
  0
VERTEX
  8
0CH97TEST
 10
94112.77
 20
-39674.41
  0
VERTEX
  8
0CH97TEST
 10
95316.89
 20
-40012.69
  0
VERTEX
  8
0CH97TEST
 10
95628.34
 20
-39517.34
  0
VERTEX
  8
0CH97TEST
 10
96475.01
 20
-37018.22
  0
VERTEX
  8
0CH97TEST
 10
97848.35
 20
-35747.09
  0
VERTEX
  8
0CH97TEST
 10
98351.02
 20
-35626.47
  0
VERTEX
  8
0CH97TEST
 10
98915.58
 20
-35809.83
  0
VERTEX
  8
0CH97TEST
 10
99483.67
 20
-36781.32
  0
VERTEX
  8
0CH97TEST
 10
99339.79
 20
-38389.45
  0
VERTEX
  8
0CH97TEST
 10
98522.34
 20
-40989.91
  0
VERTEX
  8
0CH97TEST
 10
98624.21
 20
-42384.84
  0
VERTEX
  8
0CH97TEST
 10
98425.73
 20
-44581.41
  0
VERTEX
  8
0CH97TEST
 10
99324.78
 20
-46279.34
  0
VERTEX
  8
0CH97TEST
 10
99962.17
 20
-47756.63
  0
VERTEX
  8
0CH97TEST
 10
99706.76
 20
-49090.00
  0
VERTEX
  8
0CH97TEST
 10
99818.10
 20
-50053.32
  0
VERTEX
  8
0CH97TEST
 10
100863.70
 20
-50905.64
  0
VERTEX
  8
0CH97TEST
 10
101427.41
 20
-51062.92
  0
VERTEX
  8
0CH97TEST
 10
102730.86
 20
-52033.20
  0
VERTEX
  8
0CH97TEST
 10
103346.95
 20
-52926.75
  0
VERTEX
  8
0CH97TEST
 10
103795.79
 20
-54792.96
  0
VERTEX
  8
0CH97TEST
 10
104971.62
 20
-56431.03
  0
VERTEX
  8
0CH97TEST
 10
105758.45
 20
-57140.23
  0
VERTEX
  8
0CH97TEST
 10
107973.82
 20
-58077.28
  0
VERTEX
  8
0CH97TEST
 10
108845.11
 20
-58324.27
  0
VERTEX
  8
0CH97TEST
 10
110010.13
 20
-58281.97
  0
VERTEX
  8
0CH97TEST
 10
110450.99
 20
-58546.31
  0
VERTEX
  8
0CH97TEST
 10
112450.70
 20
-59134.39
  0
VERTEX
  8
0CH97TEST
 10
114715.06
 20
-58645.11
  0
VERTEX
  8
0CH97TEST
 10
116186.86
 20
-57980.61
  0
VERTEX
  8
0CH97TEST
 10
118510.17
 20
-58403.91
  0
VERTEX
  8
0CH97TEST
 10
119606.05
 20
-56480.33
  0
VERTEX
  8
0CH97TEST
 10
119733.70
 20
-55813.81
  0
VERTEX
  8
0CH97TEST
 10
119502.21
 20
-54347.02
  0
VERTEX
  8
0CH97TEST
 10
119751.87
 20
-52860.52
  0
VERTEX
  8
0CH97TEST
 10
119851.31
 20
-52806.36
  0
VERTEX
  8
0CH97TEST
 10
120967.54
 20
-52129.03
  0
VERTEX
  8
0CH97TEST
 10
122311.55
 20
-52818.14
  0
VERTEX
  8
0CH97TEST
 10
122882.73
 20
-53178.21
  0
SEQEND
  8
0CH97TEST
  0
ENDSEC
  0
EOF

